<?xml version="1.0" standalone="no"?>
<!DOCTYPE svg PUBLIC "-//W3C//DTD SVG 20010904//EN"
 "http://www.w3.org/TR/2001/REC-SVG-20010904/DTD/svg10.dtd">
<svg version="1.0" xmlns="http://www.w3.org/2000/svg"
 width="512.000000pt" height="512.000000pt" viewBox="0 0 512.000000 512.000000"
 preserveAspectRatio="xMidYMid meet">

<g transform="translate(0.000000,512.000000) scale(0.100000,-0.100000)"
fill="#FFF" stroke="none">
<path d="M3175 4826 c-60 -19 -116 -50 -157 -88 -20 -18 -440 -634 -934 -1368
-493 -734 -1147 -1706 -1452 -2159 -592 -880 -589 -875 -541 -920 l23 -21
1326 2 1325 3 55 26 c31 14 72 40 92 58 20 18 131 168 246 334 381 550 369
529 359 615 -4 34 -12 53 -32 69 l-26 23 -550 0 c-314 0 -549 4 -549 9 0 5 76
121 168 257 93 137 390 578 661 979 272 402 500 737 507 745 12 12 14 -209 14
-1490 l0 -1505 23 -40 c12 -22 40 -50 62 -62 l40 -23 570 3 570 2 33 23 c18
13 41 41 52 62 20 39 20 67 20 2189 0 1498 -3 2158 -11 2178 -15 40 -48 73
-94 94 -38 18 -84 19 -900 18 -666 0 -869 -3 -900 -13z"/>
</g>
</svg>
