<svg xmlns="http://www.w3.org/2000/svg" width="793.7" height="1122.52" viewBox="0 0 210 297">
  <g fill="#d03808">
    <path d="M93.71 155.34l-.06 1.5-10.9 6.3-1.27-2.17 10.9-6.3zM45.88 181.45l1.24 2.18 11.55-6.65-1.25-2.17zM64.02 171.1l1.27 2.18 10.87-6.31-1.24-2.18zM127.25 163.15l1.27-2.18-10.9-6.3-1.32.67.05 1.5zM151.34 176.98l1.24-2.17 11.55 6.64-1.25 2.18zM133.82 166.97l1.27-2.18 10.9 6.3-1.28 2.19z" class="st0"/>
    <path d="M106.1 115.08h-2.51V102.5h2.52zM104.86 135.73l-1.27-.5v-12.6h2.52v12.6zM103.59 81.61h2.52v13.33h-2.52z" class="st1"/>
  </g>
  <path fill="#fff" d="M107.79 70.71l63.2 36.47 2.13 1.22.68.4v79.35l-.68.4-2.13 1.21-31.61 18.25-26.78 15.48-2.04 1.16v-12.87l.68-.4 22.53-13.01 22.56-13.02 6.26-3.6v-60.08l-52.03 30.01v72.97l-.68.4-2.12 1.21-2.12 1.22-.68.4-.68-.4-2.12-1.22-2.13-1.22-.68-.4v-72.96l-51.99-30.04v60.15l4.05 2.32 35.24 20.37 12.03 6.93.68.4v12.84l-2.04-1.16L70.54 208l-31.56-18.25-2.12-1.21-.65-.4v-79.33l.68-.4 2.12-1.21c21.06-12.17 42.15-24.33 63.2-36.47l2.13-1.22.68-.4.68.4zm-54.88 41.3L105 142.07l52.08-30.04-47.72-27.53-4.36-2.55-8.6 4.98-.6.34c-14.3 8.24-28.59 16.5-42.88 24.76z" class="st0" style="fill:#ffffff;fill-opacity:1"/>
</svg>
