<?xml version="1.0" encoding="utf-8"?>
<!-- Generator: Adobe Illustrator 18.0.0, SVG Export Plug-In . SVG Version: 6.00 Build 0)  -->
<!DOCTYPE svg PUBLIC "-//W3C//DTD SVG 1.1//EN" "http://www.w3.org/Graphics/SVG/1.1/DTD/svg11.dtd">
<svg version="1.1" id="Layer_1" xmlns="http://www.w3.org/2000/svg" xmlns:xlink="http://www.w3.org/1999/xlink" x="0px" y="0px"
	 viewBox="0 0 520.3 181.3" enable-background="new 0 0 520.3 181.3" xml:space="preserve">
<g>
	<g opacity="0.24">
		<defs>
			<rect id="SVGID_1_" x="-0.3" y="92.7" opacity="0.24" width="572.3" height="69"/>
		</defs>
		<clipPath id="SVGID_2_">
			<use xlink:href="#SVGID_1_"  overflow="visible"/>
		</clipPath>
		<g clip-path="url(#SVGID_2_)">
			<circle fill="#B8E1FF" cx="225.8" cy="149.6" r="29.1"/>
			<circle fill="#B8E1FF" cx="263.9" cy="155.8" r="24.6"/>
			<circle fill="#B8E1FF" cx="317.2" cy="149.6" r="39"/>
			<circle fill="#B8E1FF" cx="369.3" cy="160.8" r="18.2"/>
			<circle fill="#B8E1FF" cx="393" cy="164.7" r="15.4"/>
			<circle fill="#B8E1FF" cx="339.1" cy="158.5" r="30.5"/>
			<circle fill="#B8E1FF" cx="426.3" cy="160.8" r="24.3"/>
			<path fill="#B8E1FF" d="M177.5,97.2c-17.6,0-33,9.3-41.6,23.2c-7.3-4.2-15.7-6.7-24.7-6.7c-27.2,0-49.3,22.1-49.3,49.3
				s22.1,49.3,49.3,49.3c17.9,0,33.6-9.5,42.2-23.8c7.1,4,15.3,6.4,24.1,6.4c27,0,48.8-21.9,48.8-48.8S204.4,97.2,177.5,97.2z"/>
		</g>
		<rect x="-238" y="186.3" clip-path="url(#SVGID_2_)" fill="#534741" width="790" height="216"/>
	</g>
	<g opacity="0.26">
		<defs>
			<rect id="SVGID_3_" x="187.8" y="129.4" opacity="0.26" width="317.1" height="32.2"/>
		</defs>
		<clipPath id="SVGID_4_">
			<use xlink:href="#SVGID_3_"  overflow="visible"/>
		</clipPath>
		<g clip-path="url(#SVGID_4_)">
			<ellipse fill="#B8E1FF" cx="313" cy="156" rx="16.1" ry="13.6"/>
			<ellipse fill="#B8E1FF" cx="334.1" cy="158.9" rx="13.6" ry="11.5"/>
			<ellipse fill="#B8E1FF" cx="363.7" cy="156" rx="21.6" ry="18.2"/>
			<ellipse fill="#B8E1FF" cx="392.5" cy="161.2" rx="10.1" ry="8.5"/>
			<ellipse fill="#B8E1FF" cx="405.7" cy="163.1" rx="8.5" ry="7.2"/>
			<ellipse fill="#B8E1FF" cx="375.8" cy="160.2" rx="16.9" ry="14.2"/>
			<ellipse fill="#B8E1FF" cx="424.1" cy="161.2" rx="13.5" ry="11.4"/>
			<path fill="#B8E1FF" d="M286.3,131.5c-9.7,0-18.3,4.3-23,10.9c-4-2-8.7-3.1-13.7-3.1c-15.1,0-27.3,10.3-27.3,23s12.2,23,27.3,23
				c9.9,0,18.6-4.5,23.4-11.1c3.9,1.9,8.5,3,13.3,3c14.9,0,27-10.2,27-22.8S301.2,131.5,286.3,131.5z"/>
		</g>
		<rect x="55" y="172.3" clip-path="url(#SVGID_4_)" fill="#534741" width="440" height="102"/>
	</g>
	
		<text transform="matrix(0.9737 -0.228 0.228 0.9737 304.8055 102.1738)" font-family="'HanziPenSC-W3-GBpc-EUC-H'" font-size="16.1221">啊~  页面不见啦！</text>
	<g>
		
			<text transform="matrix(0.9504 -0.3109 0.3109 0.9504 292.9282 85.1534)" opacity="0.12" fill="#6D6D6D" font-family="'DFWaWaSC-W5-GBpc-EUC-H'" font-size="45.8498">404</text>
		
			<text transform="matrix(0.9504 -0.3109 0.3109 0.9504 294.2105 80.8562)" fill="#F7931E" font-family="'DFWaWaSC-W5-GBpc-EUC-H'" font-size="45.8498">404</text>
	</g>
	<g>
		<path d="M13.5,163.7c0,0,31.2-0.1,78.1-0.3c46.9-0.1,109.3-0.1,171.8-0.2c62.5,0.1,124.9,0.2,171.8,0.2
			c46.9,0.2,78.1,0.3,78.1,0.3s-31.2,0.1-78.1,0.3c-46.9,0.1-109.3,0.1-171.8,0.2c-62.5-0.1-124.9-0.2-171.8-0.2
			C44.8,163.8,13.5,163.7,13.5,163.7z"/>
	</g>
	<g>
		<path fill="none" stroke="#8C6239" stroke-width="2" stroke-linecap="round" stroke-linejoin="round" stroke-miterlimit="10" d="
			M176.4,72c-1.3-4-5.6-6.1-9.6-4.7"/>
		<path fill="none" stroke="#8C6239" stroke-linecap="round" stroke-linejoin="round" stroke-miterlimit="10" d="M144.2,83.1
			c-4.1,0.3-7.3,3.9-7,8"/>
		<g>
			<circle fill="#B8E1FF" cx="175.7" cy="115.4" r="34.7"/>
			<path fill="#8C6239" d="M210.3,115.4c0,0,0,0.8-0.1,2.4c0,0.4,0,0.8-0.1,1.3c-0.1,0.5-0.2,1-0.2,1.6c-0.1,0.6-0.2,1.2-0.3,1.8
				c-0.2,0.6-0.3,1.3-0.5,2c-0.8,2.9-2.1,6.3-4.4,9.8c-2.3,3.5-5.4,7-9.7,10c-4.2,2.9-9.5,5.1-15.4,5.9c-0.7,0.1-1.5,0.1-2.2,0.2
				c-0.8,0-1.5,0.1-2.3,0.1c-1.5-0.1-3,0-4.6-0.3c-3.1-0.3-6.2-1.3-9.2-2.5c-3-1.3-5.8-3.1-8.5-5.1c-2.6-2.1-4.9-4.7-6.8-7.5
				c-1.9-2.9-3.4-6-4.5-9.3c-1-3.3-1.5-6.8-1.6-10.3c0.1-1.8,0.1-3.4,0.4-5.2l0.2-1.3c0.1-0.4,0.1-0.9,0.3-1.3l0.7-2.5
				c1.1-3.3,2.5-6.5,4.5-9.3c2-2.8,4.3-5.4,6.8-7.5c2.6-2.1,5.5-3.9,8.5-5.1c3-1.2,6.1-2.2,9.2-2.5c1.5-0.3,3.1-0.3,4.6-0.3
				c0.8-0.1,1.5,0.1,2.3,0.1c0.7,0.1,1.5,0.1,2.2,0.2c5.9,0.8,11.2,3,15.4,5.9c4.2,2.9,7.4,6.5,9.7,10c2.3,3.5,3.5,6.9,4.4,9.8
				c0.2,0.7,0.4,1.4,0.5,2c0.1,0.6,0.2,1.3,0.3,1.8c0.1,0.6,0.2,1.1,0.2,1.6c0.1,0.5,0.1,0.9,0.1,1.3
				C210.3,114.6,210.3,115.4,210.3,115.4z M210.3,115.4c0,0,0-0.8-0.1-2.4c0-0.4,0-0.8-0.1-1.3c-0.1-0.5-0.2-1-0.2-1.6
				c-0.1-0.6-0.2-1.2-0.3-1.8c-0.2-0.6-0.3-1.3-0.5-2c-0.8-2.8-2.1-6.3-4.4-9.7c-2.3-3.4-5.5-6.9-9.8-9.7c-4.3-2.7-9.5-4.7-15.2-5.3
				c-0.7-0.1-1.5-0.1-2.2-0.1l-1.1,0l-0.6,0l-0.5,0c-1.5,0.1-3,0.1-4.5,0.4c-3,0.4-5.9,1.4-8.8,2.7c-2.9,1.3-5.5,3.1-8,5.1
				c-2.4,2.1-4.6,4.6-6.4,7.3c-1.8,2.7-3.1,5.8-4.1,8.9l-0.6,2.4c-0.1,0.4-0.2,0.8-0.2,1.2l-0.2,1.2c-0.3,1.5-0.3,3.4-0.4,5
				c0.1,3.3,0.5,6.6,1.4,9.8c1,3.1,2.4,6.2,4.1,8.9c1.8,2.7,4,5.2,6.4,7.3c2.5,2,5.1,3.8,8,5.1c2.8,1.2,5.8,2.3,8.8,2.7
				c1.5,0.3,3,0.3,4.5,0.4c0.7,0.1,1.5,0,2.2,0c0.7,0,1.5,0,2.2-0.1c5.8-0.6,11-2.6,15.3-5.4c4.3-2.8,7.5-6.3,9.8-9.7
				c2.4-3.4,3.6-6.9,4.4-9.7c0.2-0.7,0.4-1.4,0.5-2c0.1-0.6,0.2-1.3,0.3-1.8c0.1-0.6,0.2-1.1,0.2-1.6c0.1-0.5,0.1-0.9,0.1-1.3
				C210.3,116.3,210.3,115.4,210.3,115.4z"/>
		</g>
		<path fill="none" stroke="#8C6239" stroke-width="2" stroke-linecap="round" stroke-linejoin="round" stroke-miterlimit="10" d="
			M151.1,153.2l-4.7,4.5l-4.6,4.4"/>
		
			<line fill="none" stroke="#8C6239" stroke-width="2" stroke-linecap="round" stroke-linejoin="round" stroke-miterlimit="10" x1="202.5" y1="153.6" x2="212.6" y2="161.7"/>
		<path fill="none" stroke="#8C6239" stroke-width="4" stroke-linecap="round" stroke-linejoin="round" stroke-miterlimit="10" d="
			M219.4,115c0,24.3-19.7,44-44,44s-44-19.7-44-44"/>
		<path fill="none" stroke="#B8E1FF" stroke-width="2" stroke-linecap="round" stroke-linejoin="round" stroke-miterlimit="10" d="
			M219.4,115c0,24.3-19.7,44-44,44s-44-19.7-44-44"/>
		<g>
			<ellipse fill="#FFFFFF" cx="172.3" cy="103.1" rx="10.8" ry="11.3"/>
			<path fill="#8C6239" d="M183.1,103.1c0,0,0,0.3,0,0.8c0,0.3,0,0.6-0.1,0.9c0,0.4-0.1,0.8-0.2,1.2c-0.2,0.9-0.6,2-1.3,3.2
				c-0.7,1.2-1.6,2.3-2.9,3.4c-1.3,1-3,1.8-4.9,2.1c-0.5,0.1-1,0.1-1.5,0.1c-0.5,0-0.9,0-1.5-0.1c-1.1-0.1-2.1-0.4-3.1-0.8
				c-2-0.8-3.8-2.3-5.1-4.3c-1.3-1.9-1.9-4.2-2-6.7c0-1,0.2-2.3,0.5-3.4c0.3-1.1,0.8-2.2,1.5-3.2c0.6-1,1.4-1.8,2.3-2.6
				c0.9-0.7,1.8-1.3,2.8-1.7c2-0.9,4.2-1.1,6-0.7c2,0.3,3.6,1.1,4.9,2.2c1.3,1,2.3,2.2,2.9,3.4c0.7,1.1,1.1,2.3,1.3,3.2
				c0.1,0.5,0.2,0.9,0.2,1.2c0.1,0.4,0.1,0.7,0.1,0.9C183.1,102.9,183.1,103.1,183.1,103.1z M183.1,103.1c0,0,0-0.3,0-0.8
				c0-0.3,0-0.6-0.1-0.9c0-0.4-0.1-0.8-0.3-1.2c-0.2-0.9-0.6-2-1.4-3.1c-0.7-1.1-1.7-2.2-3.1-3.1c-1.3-0.9-3-1.5-4.7-1.6
				c-1.8-0.1-3.7,0.2-5.4,1.1c-1.7,0.9-3.1,2.3-4.1,4c-0.5,0.8-0.9,1.8-1.1,2.7c-0.3,1-0.4,1.8-0.4,3c0,0.9,0.1,2,0.4,2.9
				c0.3,0.9,0.6,1.9,1.1,2.7c1,1.7,2.4,3.1,4.1,4c0.8,0.4,1.7,0.8,2.6,0.9c0.4,0.1,0.9,0.1,1.4,0.2c0.4,0,0.9,0,1.3,0
				c1.8-0.1,3.4-0.8,4.8-1.6c1.3-0.9,2.3-2,3.1-3.1c0.7-1.1,1.1-2.2,1.4-3.1c0.1-0.5,0.2-0.9,0.3-1.2c0.1-0.4,0.1-0.7,0.1-0.9
				C183.1,103.4,183.1,103.1,183.1,103.1z"/>
		</g>
		
			<ellipse fill="#FFFFFF" stroke="#8C6239" stroke-linecap="round" stroke-linejoin="round" stroke-miterlimit="10" cx="146.6" cy="105.6" rx="5.5" ry="8.1"/>
		<ellipse stroke="#8C6239" stroke-miterlimit="10" cx="148.4" cy="107.3" rx="1.4" ry="2.3"/>
		<ellipse stroke="#8C6239" stroke-miterlimit="10" cx="176.7" cy="106.9" rx="1.8" ry="3"/>
		<g opacity="0.47">
			
				<image overflow="visible" width="326" height="208" xlink:href="3CD8047D51792950.png"  transform="matrix(1 0 0 1 104 -20.6667)">
			</image>
		</g>
		<g>
			
				<ellipse transform="matrix(0.9389 -0.3443 0.3443 0.9389 -37.643 62.9825)" fill="#FFFFFF" cx="158.5" cy="137.5" rx="7.1" ry="10.5"/>
			<path fill="#8C6239" d="M165.3,135c0,0,0.1,0.2,0.2,0.6c0.1,0.4,0.3,1,0.4,1.7c0.2,0.8,0.3,1.7,0.3,2.7c0,1.1-0.1,2.3-0.5,3.6
				c-0.4,1.3-1.2,2.7-2.5,3.6c-0.2,0.1-0.3,0.2-0.5,0.3c-0.2,0.1-0.3,0.2-0.6,0.3l-0.6,0.2l-0.7,0.1c-0.9,0.1-1.8,0-2.6-0.3
				c-1.7-0.5-3.2-1.6-4.4-3c-1.2-1.3-2.2-2.9-2.8-4.6c-0.2-0.5-0.3-0.8-0.4-1.3c-0.1-0.5-0.3-0.9-0.3-1.4c-0.2-0.9-0.3-1.8-0.3-2.7
				c0-1.8,0.3-3.7,1.3-5.4c0.5-0.8,1.2-1.5,1.9-2c0.8-0.6,1.7-0.9,2.5-1c1.9-0.2,3.4,0.5,4.6,1.2c1.2,0.8,2,1.8,2.7,2.6
				c0.6,0.9,1.1,1.7,1.4,2.4c0.3,0.7,0.6,1.2,0.7,1.6C165.2,134.8,165.3,135,165.3,135z M165.1,135.1c0,0-0.1-0.2-0.3-0.6
				c-0.2-0.4-0.4-0.9-0.8-1.5c-0.4-0.6-1-1.4-1.7-2.1c-0.7-0.7-1.7-1.4-2.8-1.9c-1.1-0.5-2.4-0.8-3.5-0.5c-1.3,0.2-2.3,1-3,2.2
				c-0.7,1.2-1.1,2.7-1.2,4.3c0,0.8,0,1.6,0.1,2.4c0.1,0.4,0.1,0.8,0.2,1.2c0.1,0.4,0.2,0.9,0.3,1.2c0.5,1.6,1.3,3,2.4,4.3
				c1,1.2,2.3,2.3,3.7,2.8c0.7,0.2,1.4,0.4,2.1,0.3l0.5-0.1l0.6-0.1c0.3-0.1,0.6-0.2,0.9-0.4c1.2-0.7,2-1.9,2.5-3
				c0.5-1.2,0.7-2.4,0.7-3.4c0-1-0.1-2-0.2-2.7c-0.1-0.7-0.3-1.3-0.4-1.7C165.2,135.3,165.1,135.1,165.1,135.1z"/>
		</g>
		
			<ellipse transform="matrix(0.9389 -0.3443 0.3443 0.9389 -27.3597 73.9844)" opacity="0.27" fill="#FFFFFF" cx="194.6" cy="114" rx="2.5" ry="3.7"/>
		
			<ellipse transform="matrix(0.9389 -0.3443 0.3443 0.9389 -22.9505 73.0059)" opacity="0.6" fill="#FFFFFF" cx="194.1" cy="101.1" rx="1.7" ry="2.5"/>
	</g>
</g>
</svg>
