<?xml version="1.0" encoding="UTF-8" standalone="no"?>
<svg width="499px" height="121px" viewBox="0 0 499 121" version="1.1" xmlns="http://www.w3.org/2000/svg" xmlns:xlink="http://www.w3.org/1999/xlink" xmlns:sketch="http://www.bohemiancoding.com/sketch/ns">
    <!-- Generator: Sketch 3.4.2 (15855) - http://www.bohemiancoding.com/sketch -->
    <title>bg-404</title>
    <desc>Created with Sketch.</desc>
    <defs>
        <rect id="path-1" x="0.7" y="0.7" width="572.3" height="69"></rect>
        <rect id="path-3" x="0.8" y="0.4" width="317.1" height="32.2"></rect>
    </defs>
    <g id="Page-1" stroke="none" stroke-width="1" fill="none" fill-rule="evenodd" sketch:type="MSPage">
        <g id="bg-404" sketch:type="MSLayerGroup" transform="translate(-10.000000, 0.000000)">
            <g id="Group">
                <g transform="translate(0.000000, 48.000000)" id="Clipped">
                    <g>
                        <mask id="mask-2" sketch:name="SVGID_1_" fill="white">
                            <use xlink:href="#path-1"></use>
                        </mask>
                        <g id="SVGID_1_"></g>
                        <g id="Group" mask="url(#mask-2)" fill="#EDF8FF" sketch:type="MSShapeGroup">
                            <g transform="translate(62.000000, 5.000000)">
                                <circle id="Oval" cx="164.8" cy="52.6" r="29.1"></circle>
                                <circle id="Oval" cx="202.9" cy="58.8" r="24.6"></circle>
                                <path d="M256.2,91.6 C277.739105,91.6 295.2,74.1391052 295.2,52.6 C295.2,31.0608948 277.739105,13.6 256.2,13.6 C234.660895,13.6 217.2,31.0608948 217.2,52.6 C217.2,74.1391052 234.660895,91.6 256.2,91.6 Z" id="Oval"></path>
                                <circle id="Oval" cx="308.3" cy="63.8" r="18.2"></circle>
                                <circle id="Oval" cx="332" cy="67.7" r="15.4"></circle>
                                <circle id="Oval" cx="278.1" cy="61.5" r="30.5"></circle>
                                <circle id="Oval" cx="365.3" cy="63.8" r="24.3"></circle>
                                <path d="M116.5,0.2 C98.9,0.2 83.5,9.5 74.9,23.4 C67.6,19.2 59.2,16.7 50.2,16.7 C23,16.7 0.9,38.8 0.9,66 C0.9,93.2 23,115.3 50.2,115.3 C68.1,115.3 83.8,105.8 92.4,91.5 C99.5,95.5 107.7,97.9 116.5,97.9 C143.5,97.9 165.3,76 165.3,49.1 C165.3,22.2 143.4,0.2 116.5,0.2 L116.5,0.2 Z" id="Shape"></path>
                            </g>
                        </g>
                    </g>
                </g>
                <g transform="translate(183.000000, 85.000000)" id="Clipped">
                    <g>
                        <mask id="mask-4" sketch:name="SVGID_3_" fill="white">
                            <use xlink:href="#path-3"></use>
                        </mask>
                        <g id="SVGID_3_"></g>
                        <g id="Group" mask="url(#mask-4)" fill="#DAF0FF" sketch:type="MSShapeGroup">
                            <g transform="translate(35.000000, 2.000000)">
                                <ellipse id="Oval" cx="91" cy="25" rx="16.1" ry="13.6"></ellipse>
                                <ellipse id="Oval" cx="112.1" cy="27.9" rx="13.6" ry="11.5"></ellipse>
                                <ellipse id="Oval" cx="141.7" cy="25" rx="21.6" ry="18.2"></ellipse>
                                <ellipse id="Oval" cx="170.5" cy="30.2" rx="10.1" ry="8.5"></ellipse>
                                <ellipse id="Oval" cx="183.7" cy="32.1" rx="8.5" ry="7.2"></ellipse>
                                <ellipse id="Oval" cx="153.8" cy="29.2" rx="16.9" ry="14.2"></ellipse>
                                <ellipse id="Oval" cx="202.1" cy="30.2" rx="13.5" ry="11.4"></ellipse>
                                <path d="M64.3,0.5 C54.6,0.5 46,4.8 41.3,11.4 C37.3,9.4 32.6,8.3 27.6,8.3 C12.5,8.3 0.3,18.6 0.3,31.3 C0.3,44 12.5,54.3 27.6,54.3 C37.5,54.3 46.2,49.8 51,43.2 C54.9,45.1 59.5,46.2 64.3,46.2 C79.2,46.2 91.3,36 91.3,23.4 C91.3,10.8 79.2,0.5 64.3,0.5 L64.3,0.5 Z" id="Shape"></path>
                            </g>
                        </g>
                    </g>
                </g>
                <g id="文字" transform="translate(259.000000, 0.000000)" font-size="10" font-family="Source Han Sans J" fill="#F6A623" sketch:type="MSTextLayer" font-weight="normal">
                    <text id="数人云网站正在维护中......-很快就">
                        <tspan x="0" y="9">数人云网站正在维护中...... 很快就OK了！</tspan>
                        <tspan x="0" y="24">请您耐心等待，看看用户手册学习学习，</tspan>
                        <tspan x="0" y="39">或者去数人社区吐槽一下......</tspan>
                    </text>
                </g>
                <path d="M9.5,119.7 C9.5,119.7 40.7,119.6 87.6,119.4 C134.5,119.3 196.9,119.3 259.4,119.2 C321.9,119.3 384.3,119.4 431.2,119.4 C478.1,119.6 509.3,119.7 509.3,119.7 C509.3,119.7 478.1,119.8 431.2,120 C384.3,120.1 321.9,120.1 259.4,120.2 C196.9,120.1 134.5,120 87.6,120 C40.8,119.8 9.5,119.7 9.5,119.7 L9.5,119.7 Z" id="Shape" fill="#000000" sketch:type="MSShapeGroup"></path>
                <g id="玩偶人物" transform="translate(117.000000, 21.000000)" sketch:type="MSShapeGroup">
                    <path d="M45.4,6 C44.1,2 39.8,-0.1 35.8,1.3" id="Shape" stroke="#8C6239" stroke-width="2"></path>
                    <path d="M13.2,17.1 C9.1,17.4 5.9,21 6.2,25.1" id="Shape" stroke="#8C6239"></path>
                    <g id="Group" transform="translate(8.000000, 14.000000)">
                        <circle id="Oval" fill="#B8E1FF" cx="36.7" cy="35.4" r="34.7"></circle>
                        <path d="M71.3,35.4 C71.3,35.4 71.3,36.2 71.2,37.8 C71.2,38.2 71.2,38.6 71.1,39.1 C71,39.6 70.9,40.1 70.9,40.7 C70.8,41.3 70.7,41.9 70.6,42.5 C70.4,43.1 70.3,43.8 70.1,44.5 C69.3,47.4 68,50.8 65.7,54.3 C63.4,57.8 60.3,61.3 56,64.3 C51.8,67.2 46.5,69.4 40.6,70.2 C39.9,70.3 39.1,70.3 38.4,70.4 C37.6,70.4 36.9,70.5 36.1,70.5 C34.6,70.4 33.1,70.5 31.5,70.2 C28.4,69.9 25.3,68.9 22.3,67.7 C19.3,66.4 16.5,64.6 13.8,62.6 C11.2,60.5 8.9,57.9 7,55.1 C5.1,52.2 3.6,49.1 2.5,45.8 C1.5,42.5 1,39 0.9,35.5 C1,33.7 1,32.1 1.3,30.3 L1.5,29 C1.6,28.6 1.6,28.1 1.8,27.7 L2.5,25.2 C3.6,21.9 5,18.7 7,15.9 C9,13.1 11.3,10.5 13.8,8.4 C16.4,6.3 19.3,4.5 22.3,3.3 C25.3,2.1 28.4,1.1 31.5,0.8 C33,0.5 34.6,0.5 36.1,0.5 C36.9,0.4 37.6,0.6 38.4,0.6 C39.1,0.7 39.9,0.7 40.6,0.8 C46.5,1.6 51.8,3.8 56,6.7 C60.2,9.6 63.4,13.2 65.7,16.7 C68,20.2 69.2,23.6 70.1,26.5 C70.3,27.2 70.5,27.9 70.6,28.5 C70.7,29.1 70.8,29.8 70.9,30.3 C71,30.9 71.1,31.4 71.1,31.9 C71.2,32.4 71.2,32.8 71.2,33.2 C71.3,34.6 71.3,35.4 71.3,35.4 L71.3,35.4 Z M71.3,35.4 C71.3,35.4 71.3,34.6 71.2,33 C71.2,32.6 71.2,32.2 71.1,31.7 C71,31.2 70.9,30.7 70.9,30.1 C70.8,29.5 70.7,28.9 70.6,28.3 C70.4,27.7 70.3,27 70.1,26.3 C69.3,23.5 68,20 65.7,16.6 C63.4,13.2 60.2,9.7 55.9,6.9 C51.6,4.2 46.4,2.2 40.7,1.6 C40,1.5 39.2,1.5 38.5,1.5 L37.4,1.5 L36.8,1.5 L36.3,1.5 C34.8,1.6 33.3,1.6 31.8,1.9 C28.8,2.3 25.9,3.3 23,4.6 C20.1,5.9 17.5,7.7 15,9.7 C12.6,11.8 10.4,14.3 8.6,17 C6.8,19.7 5.5,22.8 4.5,25.9 L3.9,28.3 C3.8,28.7 3.7,29.1 3.7,29.5 L3.5,30.7 C3.2,32.2 3.2,34.1 3.1,35.7 C3.2,39 3.6,42.3 4.5,45.5 C5.5,48.6 6.9,51.7 8.6,54.4 C10.4,57.1 12.6,59.6 15,61.7 C17.5,63.7 20.1,65.5 23,66.8 C25.8,68 28.8,69.1 31.8,69.5 C33.3,69.8 34.8,69.8 36.3,69.9 C37,70 37.8,69.9 38.5,69.9 C39.2,69.9 40,69.9 40.7,69.8 C46.5,69.2 51.7,67.2 56,64.4 C60.3,61.6 63.5,58.1 65.8,54.7 C68.2,51.3 69.4,47.8 70.2,45 C70.4,44.3 70.6,43.6 70.7,43 C70.8,42.4 70.9,41.7 71,41.2 C71.1,40.6 71.2,40.1 71.2,39.6 C71.3,39.1 71.3,38.7 71.3,38.3 C71.3,36.3 71.3,35.4 71.3,35.4 L71.3,35.4 Z" id="Shape" fill="#8C6239"></path>
                    </g>
                    <path d="M20.1,87.2 L15.4,91.7 L10.8,96.1" id="Shape" stroke="#8C6239" stroke-width="2"></path>
                    <path d="M71.5,87.6 L81.6,95.7" id="Shape" stroke="#8C6239" stroke-width="2"></path>
                    <path d="M88.4,49 C88.4,73.3 68.7,93 44.4,93 C20.1,93 0.4,73.3 0.4,49" id="Shape" stroke="#8C6239" stroke-width="4"></path>
                    <path d="M88.4,49 C88.4,73.3 68.7,93 44.4,93 C20.1,93 0.4,73.3 0.4,49" id="Shape" stroke="#B8E1FF" stroke-width="2"></path>
                    <g id="Group" transform="translate(29.000000, 25.000000)">
                        <ellipse id="Oval" fill="#FFFFFF" cx="12.3" cy="12.1" rx="10.8" ry="11.3"></ellipse>
                        <path d="M23.1,12.1 L23.1,12.9 C23.1,13.2 23.1,13.5 23,13.8 C23,14.2 22.9,14.6 22.8,15 C22.6,15.9 22.2,17 21.5,18.2 C20.8,19.4 19.9,20.5 18.6,21.6 C17.3,22.6 15.6,23.4 13.7,23.7 C13.2,23.8 12.7,23.8 12.2,23.8 C11.7,23.8 11.3,23.8 10.7,23.7 C9.6,23.6 8.6,23.3 7.6,22.9 C5.6,22.1 3.8,20.6 2.5,18.6 C1.2,16.7 0.6,14.4 0.5,11.9 C0.5,10.9 0.7,9.6 1,8.5 C1.3,7.4 1.8,6.3 2.5,5.3 C3.1,4.3 3.9,3.5 4.8,2.7 C5.7,2 6.6,1.4 7.6,1 C9.6,0.1 11.8,-0.1 13.6,0.3 C15.6,0.6 17.2,1.4 18.5,2.5 C19.8,3.5 20.8,4.7 21.4,5.9 C22.1,7 22.5,8.2 22.7,9.1 C22.8,9.6 22.9,10 22.9,10.3 C23,10.7 23,11 23,11.2 C23.1,11.9 23.1,12.1 23.1,12.1 L23.1,12.1 Z M23.1,12.1 L23.1,11.3 C23.1,11 23.1,10.7 23,10.4 C23,10 22.9,9.6 22.7,9.2 C22.5,8.3 22.1,7.2 21.3,6.1 C20.6,5 19.6,3.9 18.2,3 C16.9,2.1 15.2,1.5 13.5,1.4 C11.7,1.3 9.8,1.6 8.1,2.5 C6.4,3.4 5,4.8 4,6.5 C3.5,7.3 3.1,8.3 2.9,9.2 C2.6,10.2 2.5,11 2.5,12.2 C2.5,13.1 2.6,14.2 2.9,15.1 C3.2,16 3.5,17 4,17.8 C5,19.5 6.4,20.9 8.1,21.8 C8.9,22.2 9.8,22.6 10.7,22.7 C11.1,22.8 11.6,22.8 12.1,22.9 L13.4,22.9 C15.2,22.8 16.8,22.1 18.2,21.3 C19.5,20.4 20.5,19.3 21.3,18.2 C22,17.1 22.4,16 22.7,15.1 C22.8,14.6 22.9,14.2 23,13.9 C23.1,13.5 23.1,13.2 23.1,13 C23.1,12.4 23.1,12.1 23.1,12.1 L23.1,12.1 Z" id="Shape" fill="#8C6239"></path>
                    </g>
                    <ellipse id="Oval" stroke="#8C6239" fill="#FFFFFF" cx="15.6" cy="39.6" rx="5.5" ry="8.1"></ellipse>
                    <ellipse id="Oval" stroke="#8C6239" fill="#000000" cx="17.4" cy="41.3" rx="1.4" ry="2.3"></ellipse>
                    <ellipse id="Oval" stroke="#8C6239" fill="#000000" cx="45.7" cy="40.9" rx="1.8" ry="3"></ellipse>
                    <g id="Group" transform="translate(17.000000, 59.000000)">
                        <ellipse id="Oval" fill="#FFFFFF" transform="translate(10.513900, 12.509700) rotate(-20.138276) translate(-10.513900, -12.509700) " cx="10.5139" cy="12.5097" rx="7.10026873" ry="10.5003974"></ellipse>
                        <path d="M17.3,10 C17.3,10 17.4,10.2 17.5,10.6 C17.6,11 17.8,11.6 17.9,12.3 C18.1,13.1 18.2,14 18.2,15 C18.2,16.1 18.1,17.3 17.7,18.6 C17.3,19.9 16.5,21.3 15.2,22.2 C15,22.3 14.9,22.4 14.7,22.5 C14.5,22.6 14.4,22.7 14.1,22.8 L13.5,23 L12.8,23.1 C11.9,23.2 11,23.1 10.2,22.8 C8.5,22.3 7,21.2 5.8,19.8 C4.6,18.5 3.6,16.9 3,15.2 C2.8,14.7 2.7,14.4 2.6,13.9 C2.5,13.4 2.3,13 2.3,12.5 C2.1,11.6 2,10.7 2,9.8 C2,8 2.3,6.1 3.3,4.4 C3.8,3.6 4.5,2.9 5.2,2.4 C6,1.8 6.9,1.5 7.7,1.4 C9.6,1.2 11.1,1.9 12.3,2.6 C13.5,3.4 14.3,4.4 15,5.2 C15.6,6.1 16.1,6.9 16.4,7.6 C16.7,8.3 17,8.8 17.1,9.2 C17.2,9.8 17.3,10 17.3,10 L17.3,10 Z M17.1,10.1 C17.1,10.1 17,9.9 16.8,9.5 C16.6,9.1 16.4,8.6 16,8 C15.6,7.4 15,6.6 14.3,5.9 C13.6,5.2 12.6,4.5 11.5,4 C10.4,3.5 9.1,3.2 8,3.5 C6.7,3.7 5.7,4.5 5,5.7 C4.3,6.9 3.9,8.4 3.8,10 C3.8,10.8 3.8,11.6 3.9,12.4 C4,12.8 4,13.2 4.1,13.6 C4.2,14 4.3,14.5 4.4,14.8 C4.9,16.4 5.7,17.8 6.8,19.1 C7.8,20.3 9.1,21.4 10.5,21.9 C11.2,22.1 11.9,22.3 12.6,22.2 L13.1,22.1 L13.7,22 C14,21.9 14.3,21.8 14.6,21.6 C15.8,20.9 16.6,19.7 17.1,18.6 C17.6,17.4 17.8,16.2 17.8,15.2 C17.8,14.2 17.7,13.2 17.6,12.5 C17.5,11.8 17.3,11.2 17.2,10.8 C17.2,10.3 17.1,10.1 17.1,10.1 L17.1,10.1 Z" id="Shape" fill="#8C6239"></path>
                    </g>
                    <ellipse id="Oval" opacity="0.27" fill="#FFFFFF" transform="translate(63.600440, 48.018220) rotate(-20.138276) translate(-63.600440, -48.018220) " cx="63.60044" cy="48.01822" rx="2.50009462" ry="3.70014004"></ellipse>
                    <ellipse id="Oval" opacity="0.6" fill="#FFFFFF" transform="translate(63.098720, 35.100060) rotate(-20.138276) translate(-63.098720, -35.100060) " cx="63.09872" cy="35.10006" rx="1.70006434" ry="2.50009462"></ellipse>
                </g>
            </g>
        </g>
    </g>
</svg>