<?xml version="1.0" encoding="iso-8859-1"?>
<!-- Generator: Adobe Illustrator 18.0.0, SVG Export Plug-In . SVG Version: 6.00 Build 0)  -->
<!DOCTYPE svg PUBLIC "-//W3C//DTD SVG 1.1//EN" "http://www.w3.org/Graphics/SVG/1.1/DTD/svg11.dtd">
<svg version="1.1" id="&#x56FE;&#x5C42;_1" xmlns="http://www.w3.org/2000/svg" xmlns:xlink="http://www.w3.org/1999/xlink" x="0px"
	 y="0px" viewBox="0 0 100 100" style="enable-background:new 0 0 100 100;" xml:space="preserve">
<path style="fill:#9B9B9B;" d="M84.097,9.973H16.178c-4.681,0-8.489,2.865-8.489,6.388v69.009c0,3.523,3.808,6.388,8.489,6.388
	h45.558h5.715c1.804,0,3.266-1.143,3.266-2.555s-1.462-2.555-3.266-2.555h-5.715H16.178c-1.08,0-1.96-0.573-1.96-1.278V16.361
	c0-0.705,0.88-1.278,1.96-1.278h47.907v22.161c0,1.412,1.462,2.555,3.266,2.555s3.266-1.143,3.266-2.555V15.083h13.48
	c1.08,0,1.96,0.573,1.96,1.278v65.812v0.639v1.916v1.916c0,0.852,0.567,1.569,1.387,2.035c0.539,0.304,1.165,0.523,1.879,0.523
	c1.804,0,3.266-1.143,3.266-2.555v-1.916v-1.916v-0.639V16.361C92.589,12.838,88.778,9.973,84.097,9.973z"/>
</svg>
