<?xml version="1.0" encoding="iso-8859-1"?>
<!-- Generator: Adobe Illustrator 18.0.0, SVG Export Plug-In . SVG Version: 6.00 Build 0)  -->
<!DOCTYPE svg PUBLIC "-//W3C//DTD SVG 1.1//EN" "http://www.w3.org/Graphics/SVG/1.1/DTD/svg11.dtd">
<svg version="1.1" id="&#x56FE;&#x5C42;_1" xmlns="http://www.w3.org/2000/svg" xmlns:xlink="http://www.w3.org/1999/xlink" x="0px"
	 y="0px" viewBox="0 0 100 100" style="enable-background:new 0 0 100 100;" xml:space="preserve">
<g>
	<path style="fill:#9B9B9B;" d="M71.222,84.961c-0.448-14.662-10.493-26.974-23.998-30.917c0.239-0.117,0.904-0.52,1.003-0.576
		c0.698-0.387,2.338-1.501,2.496-1.621c0.589-0.444,2.151-1.853,2.376-2.08c0.428-0.434,2.681-3.243,2.901-3.59
		c0.445-0.7,0.835-1.435,1.198-2.186c0.048-0.102,0.11-0.194,0.157-0.295c1.244-2.689,1.954-5.673,1.954-8.831
		c0-11.763-9.57-21.332-21.333-21.332c-0.004,0-0.01,0-0.014,0c-0.004,0-0.01,0-0.014,0c-11.762,0-21.333,9.569-21.333,21.332
		c0,8.44,4.943,15.728,12.073,19.184C15.19,57.993,5.149,70.303,4.701,84.961c-0.005,0.071-0.041,0.131-0.041,0.202
		c0,0.039,0.019,0.07,0.022,0.109c0.016,0.412,0.118,0.797,0.288,1.15c0.473,0.976,1.453,1.665,2.612,1.665
		c1.184,0,2.189-0.71,2.648-1.718c0.124-0.269,0.17-0.566,0.206-0.871c0.016-0.114,0.069-0.216,0.069-0.334
		c0-0.123-0.055-0.229-0.071-0.35c0-0.433,0.011-0.864-0.006-1.296c-0.011-0.257,0.055-0.46,0.107-0.673h-0.074
		c0.871-7.644,4.898-14.356,10.72-18.82c0.107-0.06,0.224-0.104,0.323-0.176c0.019,0.018,0.039,0.037,0.06,0.056
		c3.438-2.599,7.472-4.434,11.867-5.195c0.077-0.012,0.155-0.021,0.232-0.033c0.64-0.106,1.288-0.191,1.943-0.25
		c0.576-0.048,1.158-0.07,1.742-0.082c0.203-0.005,0.402-0.026,0.608-0.026c0.917,0.001,1.823,0.063,2.717,0.155
		c-0.001-0.008,0.003-0.015,0.001-0.023c12.911,1.261,23.318,11.513,24.786,24.393h-0.074c0.052,0.213,0.118,0.416,0.107,0.673
		c-0.016,0.433-0.005,0.864-0.005,1.296c-0.017,0.121-0.071,0.227-0.071,0.35c0,0.118,0.052,0.22,0.069,0.334
		c0.036,0.305,0.082,0.601,0.206,0.871c0.459,1.008,1.464,1.718,2.648,1.718c1.159,0,2.14-0.688,2.612-1.665
		c0.17-0.353,0.272-0.738,0.289-1.15c0.003-0.039,0.022-0.07,0.022-0.109C71.263,85.091,71.228,85.032,71.222,84.961z
		 M22.271,34.864c0-8.656,7.039-15.698,15.691-15.706c8.652,0.008,15.691,7.05,15.691,15.706c0,8.656-7.039,15.698-15.691,15.706
		C29.31,50.561,22.271,43.52,22.271,34.864z"/>
	<g>
		<path style="fill:#9B9B9B;" d="M97.959,85.66c-0.448-14.658-10.489-26.967-23.987-30.913c7.13-3.456,12.073-10.743,12.073-19.184
			c0-11.737-9.529-21.287-21.258-21.328v0.058c-1.446,0.117-2.596,1.293-2.596,2.769s1.15,2.652,2.596,2.769v0.03
			c0.07,0,0.138,0.011,0.208,0.012c0.004,0,0.007,0.001,0.01,0.001l0.006-0.001c8.507,0.177,15.379,7.139,15.379,15.689
			c0,7.981-6.185,15.386-13.928,16.494c0,0.007-0.001,0.014-0.001,0.021c-0.703,0.126-1.354,0.4-1.854,0.871
			c-0.694,0.654-1.139,1.564-1.139,2.593c0,1.104,0.529,2.053,1.313,2.71c0.615,0.516,1.382,0.863,2.247,0.868
			c-0.005,0-0.011,0.003-0.016,0.003c0.012,0.001,0.032,0.001,0.042,0.003c0.655,0.059,1.304,0.144,1.943,0.25
			c0.077,0.012,0.155,0.021,0.232,0.033c4.395,0.761,8.429,2.596,11.867,5.194c0.022-0.019,0.041-0.038,0.061-0.056
			c0.099,0.071,0.216,0.115,0.323,0.176c5.822,4.464,9.849,11.176,10.72,18.82h-0.074c0.052,0.213,0.118,0.416,0.107,0.673
			c-0.017,0.433-0.006,0.864-0.006,1.296c-0.016,0.121-0.071,0.227-0.071,0.35c0,0.118,0.052,0.22,0.069,0.334
			c0.036,0.305,0.082,0.602,0.206,0.871c0.459,1.008,1.464,1.718,2.648,1.718c1.159,0,2.14-0.688,2.612-1.665
			c0.17-0.353,0.272-0.738,0.289-1.15C97.981,85.932,98,85.9,98,85.862C98,85.79,97.964,85.731,97.959,85.66z"/>
		<path style="fill:#9B9B9B;" d="M67.004,59.124c0.003,0,0.004-0.001,0.004-0.001c-0.003,0-0.011,0-0.017-0.001
			C66.996,59.121,67,59.124,67.004,59.124z"/>
	</g>
</g>
</svg>
