<svg t="1741267212805" class="icon" viewBox="0 0 1024 1024" version="1.1" xmlns="http://www.w3.org/2000/svg"
    p-id="47619" width="200" height="200">
    <path
        d="M830.2 638.7c-26.9 0-51.7 9.2-71.3 24.5L648.6 544.7l108.2-115.5c20 16.3 45.5 26.1 73.4 26.1 64.1 0 116-51.9 116-116s-51.9-116-116-116c-45.6 0-85.1 26.3-104 64.6L313.4 149.5c3.2-10.6 4.9-21.9 4.9-33.5 0-64.1-51.9-116-116-116s-116 51.9-116 116 51.9 116 116 116c27.6 0 52.9-9.6 72.8-25.7l208.6 224.3L313 487.9c-14.8-47.1-58.7-81.2-110.7-81.2-64.1 0-116 51.9-116 116s51.9 116 116 116c39.8 0 75-20.1 95.9-50.7l190.9 64.1-186 198.5c-20-35-57.6-58.6-100.8-58.6-64.1 0-116 51.9-116 116s51.9 116 116 116c55.7 0 102.2-39.3 113.4-91.6L721.8 796c16.7 43.6 58.9 74.7 108.4 74.7 64.1 0 116-51.9 116-116s-51.9-116-116-116z m-110.7 45.4l-153.3-51.4 52.9-56.5 100.4 107.9z m9.5-288L619.3 513.2l-58.6-63L727.8 394l1.2 2.1zM327.8 199.7l386.9 129.8c-0.3 3.3-0.4 6.6-0.4 9.9 0 4.6 0.3 9.1 0.8 13.6l-186.5 62.6-200.8-215.9z m-12.4 348.8c1.2-5.5 2.1-11.1 2.5-16.9l198-66.5 73.9 79.5-68.4 73-206-69.1z m401.7 180.1c-1.8 7.9-2.8 16.2-2.9 24.6L333.4 881.1l200.5-213.9 183.2 61.4z"
        fill="#ffffff" p-id="47620"></path>
</svg>