<svg t="1741258217687" class="icon" viewBox="0 0 1024 1024" version="1.1" xmlns="http://www.w3.org/2000/svg"
    p-id="34091" width="200" height="200">
    <path
        d="M636.832 488.416l288.416 114.56c8.32 3.296 15.392 8.96 20.416 16.288a44.16 44.16 0 0 1 0.288 49.6c-4.96 7.392-12 13.12-20.256 16.512l-397.76 163.008c-11.04 4.512-23.392 4.512-34.4 0L95.68 685.44a44.832 44.832 0 0 1-20.256-16.48 44.16 44.16 0 0 1 20.704-65.92l293.504-116.544c16.8-6.688 69.92 12.896 121.024 13.088 54.624 0.16 107.296-18.592 126.144-11.136zM232 644.928l278.72 114.24 278.752-114.24-278.752-110.72z m295.488-466.88l397.76 157.984c8.32 3.296 15.424 8.96 20.48 16.288a43.936 43.936 0 0 1 0.256 49.632c-4.96 7.36-12 13.12-20.256 16.48l-397.792 163.04c-11.008 4.48-23.36 4.48-34.4 0L95.712 418.496a44.832 44.832 0 0 1-20.224-16.48 44.16 44.16 0 0 1 0.256-49.664c5.024-7.296 12.16-12.96 20.416-16.256l397.792-158.048a45.376 45.376 0 0 1 33.536 0zM232 377.984l278.72 114.24 278.752-114.24-278.752-110.72z"
        fill="#ffffff" p-id="34092"></path>
</svg>