<svg width="107px" height="109px" viewBox="-10 -10 127 129" version="1.1" xmlns="http://www.w3.org/2000/svg"
    xmlns:xlink="http://www.w3.org/1999/xlink">
    <g id="页面-1" stroke="none" stroke-width="1" fill="none" fill-rule="evenodd">
        <g id="编组" fill="#FFFFFF" fill-rule="nonzero">
            <path
                d="M92.5657635,67.9866213 C89.2185139,67.9866213 86.1325732,68.9659177 83.6936851,70.5945316 L69.9687173,57.9807617 L83.4323762,45.6863282 C85.9210371,47.4213867 89.0940807,48.4645508 92.5657635,48.4645508 C100.541924,48.4645508 107,42.940039 107,36.1168946 C107,29.29375 100.541924,23.7692383 92.5657635,23.7692383 C86.8916155,23.7692383 81.9765092,26.56875 79.6247241,30.6456054 L28.258751,15.9135742 C28.6569369,14.7852539 28.8684731,13.5824219 28.8684731,12.3476562 C28.8684731,5.52451172 22.4103966,0 14.4342365,0 C6.45807652,0 0,5.52451172 0,12.3476562 C0,19.1708008 6.45807652,24.6953125 14.4342365,24.6953125 C17.8685894,24.6953125 21.0167461,23.6734375 23.4929643,21.9596679 L49.4497035,45.8353515 L28.2089778,51.9346679 C26.3673683,46.9210938 20.9047563,43.2913086 14.4342365,43.2913086 C6.45807652,43.2913086 0,48.8158203 0,55.6389649 C0,62.4621094 6.45807652,67.9866213 14.4342365,67.9866213 C19.3866729,67.9866213 23.7667171,65.8470706 26.3673683,62.5898438 L50.1216421,69.4129882 L26.9770904,90.5423831 C24.4884289,86.816797 19.8097453,84.3046875 14.4342365,84.3046875 C6.45807652,84.3046875 0,89.8291993 0,96.6523441 C0,103.475488 6.45807652,109 14.4342365,109 C21.3651587,109 27.1512967,104.816699 28.5449471,99.2496095 L79.0772179,84.7304691 C81.1552507,89.3714845 86.4063263,92.6819338 92.5657635,92.6819338 C100.541924,92.6819338 107,87.157422 107,80.3342772 C107,73.5111331 100.541924,67.9866213 92.5657635,67.9866213 L92.5657635,67.9866213 Z M78.7910222,72.8192382 L59.7154321,67.3479493 L66.2979417,61.333789 L78.7910222,72.8192382 Z M79.9731361,42.1629883 L66.3228282,54.6277344 L59.0310501,47.9216797 L79.8238169,41.9394531 L79.9731361,42.1629883 Z M30.0505873,21.2571289 L78.1937432,35.0737304 C78.1564137,35.425 78.1439704,35.7762696 78.1439704,36.127539 C78.1439704,36.6171875 78.1812998,37.0961914 78.2435167,37.5751953 L55.0367485,44.2386719 L30.0505873,21.2571289 Z M28.5076172,58.3852539 C28.6569369,57.7998047 28.7689266,57.203711 28.8186998,56.5863282 L53.4564484,49.5077149 L62.6520525,57.9701172 L54.1408303,65.740625 L28.5076172,58.3852539 Z M78.492383,77.5560544 C78.2684035,78.3969728 78.1439704,79.2804691 78.131527,80.1746095 L30.7474125,93.7889647 L55.6962438,71.0203125 L78.492383,77.5560544 L78.492383,77.5560544 Z"
                id="形状"></path>
        </g>
    </g>
</svg>