<svg t="1741258758914" class="icon" viewBox="0 0 1024 1024" version="1.1" xmlns="http://www.w3.org/2000/svg"
    p-id="35550" width="200" height="200">
    <path
        d="M824.888889 113.777778m-113.777778 0a113.777778 113.777778 0 1 0 227.555556 0 113.777778 113.777778 0 1 0-227.555556 0Z"
        fill="#FFE8B6" p-id="35551"></path>
    <path
        d="M824.888889 113.777778m-85.333333 0a85.333333 85.333333 0 1 0 170.666666 0 85.333333 85.333333 0 1 0-170.666666 0Z"
        fill="#FFD983" p-id="35552"></path>
    <path
        d="M924.444444 14.222222l-119.665777 79.445334 40.220444 40.220444z m-199.111111 199.111111l79.445334-119.665777 40.220444 40.220444z"
        fill="#FFCC4D" p-id="35553"></path>
    <path d="M924.444444 213.333333l-79.445333-119.665777-40.220444 40.220444z" fill="#FFCC4D" p-id="35554"></path>
    <path d="M725.333333 14.222222l119.665778 79.445334-40.220444 40.220444z" fill="#FFCC4D" p-id="35555"></path>
    <path
        d="M654.222222 384a14.279111 14.279111 0 0 1-9.130666-25.173333c162.389333-135.310222 165.546667-244.081778 165.546666-245.162667 0.085333-7.822222 5.944889-15.189333 14.307556-14.108444a14.250667 14.250667 0 0 1 14.165333 14.222222c0 4.920889-1.991111 122.112-175.786667 266.922666a14.136889 14.136889 0 0 1-9.102222 3.299556z"
        fill="#C1694F" p-id="35556"></path>
    <path
        d="M137.272889 1007.416889L16.583111 886.727111a57.031111 57.031111 0 0 1 0-80.440889L559.644444 263.224889a57.031111 57.031111 0 0 1 80.440889 0l120.689778 120.689778a57.031111 57.031111 0 0 1 0 80.440889L217.713778 1007.416889a57.088 57.088 0 0 1-80.440889 0z"
        fill="#DD2E44" p-id="35557"></path>
    <path
        d="M519.424 303.445333l201.130667 201.102223-60.330667 60.359111-201.130667-201.130667zM117.191111 705.706667l201.102222 201.102222-60.302222 60.359111-201.159111-201.102222z"
        fill="#FFCC4D" p-id="35558"></path>
    <path
        d="M640.113778 263.224889l40.220444 40.220444-80.440889 80.440889-40.248889-40.220444zM97.052444 806.286222l40.220445 40.220445-80.440889 80.440889-40.220444-40.220445z m402.261334-402.261333l40.220444 40.220444-341.902222 341.902223-40.248889-40.220445z"
        fill="#EA596E" p-id="35559"></path>
    <path
        d="M559.644444 343.665778l40.248889 40.220444-60.359111 60.359111-40.220444-40.248889zM157.411556 745.927111l40.220444 40.248889-60.359111 60.302222-40.220445-40.192z"
        fill="#FFD983" p-id="35560"></path>
</svg>