<svg width="36" height="36" viewBox="0 0 36 36" fill="none" xmlns="http://www.w3.org/2000/svg">
<g clip-path="url(#clip0)">
<path fill-rule="evenodd" clip-rule="evenodd" d="M7.21411 17.0806H10.931V13.7016H7.21411V17.0806Z" fill="#46A4E0"/>
<path fill-rule="evenodd" clip-rule="evenodd" d="M2.82153 17.0806H6.53844V13.7016H2.82153L2.82153 17.0806Z" fill="#46A4E0"/>
<path fill-rule="evenodd" clip-rule="evenodd" d="M11.6069 17.0806H15.3236V13.7016H11.6069V17.0806Z" fill="#46A4E0"/>
<path fill-rule="evenodd" clip-rule="evenodd" d="M15.9995 17.0806H19.7163V13.7016H15.9995V17.0806Z" fill="#46A4E0"/>
<path fill-rule="evenodd" clip-rule="evenodd" d="M20.3921 17.0806H24.109V13.7016H20.3921V17.0806Z" fill="#46A4E0"/>
<path fill-rule="evenodd" clip-rule="evenodd" d="M7.21411 13.0259H10.931V9.6468H7.21411V13.0259Z" fill="#46A4E0"/>
<path fill-rule="evenodd" clip-rule="evenodd" d="M11.6069 13.0259H15.3236V9.6468H11.6069V13.0259Z" fill="#46A4E0"/>
<path fill-rule="evenodd" clip-rule="evenodd" d="M15.9995 13.0259H19.7163V9.6468H15.9995V13.0259Z" fill="#46A4E0"/>
<path fill-rule="evenodd" clip-rule="evenodd" d="M15.9995 8.97119H19.7163V5.59221H15.9995V8.97119Z" fill="#46A4E0"/>
<path fill-rule="evenodd" clip-rule="evenodd" d="M35.1797 14.7449C34.4168 14.2315 32.4125 14.0122 30.9553 14.4047C30.8771 12.9531 30.1284 11.7298 28.759 10.6628L28.2523 10.3227L27.9141 10.833C27.2503 11.8408 26.9706 13.1837 27.0697 14.4047C27.1477 15.1568 27.4094 16.0024 27.9141 16.6157C27.5275 16.9163 26.325 17.4972 24.7044 17.4663L0.544673 17.4663C0.115032 20.0175 0.850805 29.7122 12.0331 29.7122C20.3348 29.7122 27.1562 25.9786 30.2795 18.1465C31.3072 18.1634 34.0204 18.3307 35.3481 15.7652C35.3803 15.7222 35.686 15.0851 35.686 15.0851L35.1797 14.7449Z" fill="#46A4E0"/>
<mask id="mask0" mask-type="alpha" maskUnits="userSpaceOnUse" x="3" y="25" width="12" height="5">
<path d="M9.47079 25.1061C6.71403 26.0623 3.74586 26.2006 3.12549 26.173C5.1935 27.8974 8.87792 31.1516 14.9518 29.2937C13.8426 28.9922 11.2261 27.9837 9.47079 25.1061Z" fill="white"/>
</mask>
<g mask="url(#mask0)">
<mask id="mask1" mask-type="alpha" maskUnits="userSpaceOnUse" x="-19" y="-9" width="70" height="70">
<path d="M-18.804 60.6694L50.1271 60.6694L50.1271 -8.26151L-18.804 -8.26151L-18.804 60.6694Z" fill="white"/>
</mask>
<g mask="url(#mask1)">
<path fill-rule="evenodd" clip-rule="evenodd" d="M1.43604 30.0002L16.6414 30.0002V23.4167H1.43604L1.43604 30.0002Z" fill="white"/>
</g>
</g>
<path fill-rule="evenodd" clip-rule="evenodd" d="M9.16281 24.5106C7.83642 25.2677 6.29914 25.6928 4.66865 25.6928C3.84244 25.6928 3.04218 25.5831 2.28076 25.3772C2.76289 26.1877 2.76289 26.1877 2.76289 26.1877C3.37944 26.3094 4.01639 26.3733 4.66865 26.3733C6.42576 26.3733 8.06461 25.914 9.49225 25.106C9.37402 24.9104 9.26406 24.7148 9.16281 24.5106Z" fill="#3371C1"/>
<path fill-rule="evenodd" clip-rule="evenodd" d="M11.7342 24.0696C12.3829 24.0696 12.9089 23.5401 12.9089 22.887C12.9089 22.2338 12.3829 21.7043 11.7342 21.7043C11.0852 21.7043 10.5593 22.2338 10.5593 22.887C10.5593 23.5401 11.0852 24.0696 11.7342 24.0696Z" fill="white"/>
<path fill-rule="evenodd" clip-rule="evenodd" d="M11.911 22.5548C11.911 22.4462 11.9645 22.354 12.043 22.2919C11.9509 22.2441 11.8481 22.2145 11.7375 22.2145C11.3668 22.2145 11.0662 22.5172 11.0662 22.8904C11.0662 23.2635 11.3668 23.5662 11.7375 23.5662C12.1081 23.5662 12.4088 23.2635 12.4088 22.8904L12.4049 22.8515C12.3576 22.8769 12.3061 22.8948 12.2488 22.8948C12.0622 22.8948 11.911 22.7426 11.911 22.5548Z" fill="#46505C"/>
<path fill-rule="evenodd" clip-rule="evenodd" d="M35.0795 14.6831C34.5573 14.3871 33.6068 14.2038 32.6253 14.2038C32.0528 14.2038 31.4699 14.2662 30.9552 14.4048C30.9537 14.3741 30.9517 14.3436 30.9495 14.3132C31.4132 14.1907 31.9457 14.1358 32.4772 14.1358C33.5328 14.1358 34.5838 14.3522 35.0795 14.6831Z" fill="#E7E3E1"/>
<path fill-rule="evenodd" clip-rule="evenodd" d="M13.7143 29.6104C14.1154 29.5282 14.5278 29.4234 14.9519 29.2937C14.4324 29.1524 13.5821 28.8561 12.6445 28.2852C20.3678 28.0972 26.0235 24.1331 30.5441 14.7766L30.8543 14.3395C30.8855 14.3304 30.9172 14.3217 30.9494 14.3132C30.9517 14.3436 30.9537 14.3741 30.9552 14.4048C31.4699 14.2661 32.0528 14.2038 32.6252 14.2038C33.6067 14.2038 34.5573 14.3871 35.0795 14.6831C35.0802 14.6837 35.0812 14.6843 35.0822 14.685L35.5925 15.0309L35.3355 15.5749C34.1637 17.9501 31.619 18.1285 30.428 18.1285C30.3311 18.1285 30.2432 18.1273 30.1657 18.1261C27.2457 25.3573 21.1794 29.0869 13.7143 29.6104Z" fill="#E7E3E1"/>
<path fill-rule="evenodd" clip-rule="evenodd" d="M13.7143 29.6104C14.1154 29.5282 14.5278 29.4234 14.9519 29.2937C14.4324 29.1524 13.5821 28.8561 12.6445 28.2852C20.3678 28.0972 26.0235 24.1331 30.5441 14.7766L30.8543 14.3395C30.8855 14.3304 30.9172 14.3217 30.9494 14.3132C30.9517 14.3436 30.9537 14.3741 30.9552 14.4048C31.4699 14.2661 32.0528 14.2038 32.6252 14.2038C33.6067 14.2038 34.5573 14.3871 35.0795 14.6831C35.0802 14.6837 35.0812 14.6843 35.0822 14.685L35.5925 15.0309L35.3355 15.5749C34.1637 17.9501 31.619 18.1285 30.428 18.1285C30.3311 18.1285 30.2432 18.1273 30.1657 18.1261C27.2457 25.3573 21.1794 29.0869 13.7143 29.6104Z" fill="#4195CA"/>
<path fill-rule="evenodd" clip-rule="evenodd" d="M7.87746 29.21C5.57679 28.6165 3.94076 27.5068 2.78394 26.1917C2.90072 26.2145 3.01817 26.2352 3.1364 26.2538C4.1704 27.4281 5.57776 28.4331 7.47757 29.0522C7.60849 29.1068 7.74195 29.1596 7.87746 29.21Z" fill="#E7E3E1"/>
<path fill-rule="evenodd" clip-rule="evenodd" d="M7.4774 29.0522C5.57759 28.4332 4.17023 27.4281 3.13623 26.2538C3.17114 26.2593 3.20628 26.2647 3.2413 26.2697C4.25521 27.1172 5.63935 28.2843 7.4774 29.0522Z" fill="#E7E3E1"/>
<path fill-rule="evenodd" clip-rule="evenodd" d="M7.4774 29.0522C5.57759 28.4332 4.17023 27.4281 3.13623 26.2538C3.17114 26.2593 3.20628 26.2647 3.2413 26.2697C4.25521 27.1172 5.63935 28.2843 7.4774 29.0522Z" fill="#4195CA"/>
<path fill-rule="evenodd" clip-rule="evenodd" d="M2.72587 26.1252C0.190161 23.1867 0.00216903 19.2574 0.105579 17.7411H0.506244C0.327521 19.3081 0.54917 22.6683 2.48869 25.4308C2.41914 25.4137 2.34987 25.3959 2.2809 25.3773C2.55776 25.8427 2.67572 26.0409 2.72587 26.1252Z" fill="#E7E3E1"/>
<path fill-rule="evenodd" clip-rule="evenodd" d="M4.48017 25.6909C3.79522 25.6771 3.1289 25.5877 2.48874 25.4308C0.549213 22.6683 0.327564 19.3081 0.506287 17.7411H1.45727C1.77706 21.0044 2.53528 23.7998 4.48017 25.6909Z" fill="#E7E3E1"/>
<path fill-rule="evenodd" clip-rule="evenodd" d="M4.48017 25.6909C3.79522 25.6771 3.1289 25.5877 2.48874 25.4308C0.549213 22.6683 0.327564 19.3081 0.506287 17.7411H1.45727C1.77706 21.0044 2.53528 23.7998 4.48017 25.6909Z" fill="#4195CA"/>
<path fill-rule="evenodd" clip-rule="evenodd" d="M11.8518 29.6746C10.3449 29.6746 9.02813 29.5069 7.87745 29.21C7.74194 29.1597 7.60848 29.1069 7.47756 29.0522C5.63951 28.2843 4.25537 27.1172 3.24146 26.2697C3.70738 26.3379 4.18384 26.3732 4.6688 26.3732C4.8691 26.3732 5.06762 26.3673 5.26469 26.3555C6.9211 27.5756 9.26948 28.2769 12.6078 28.286C12.6201 28.2857 12.6323 28.2855 12.6446 28.2852C13.5821 28.8561 14.4324 29.1523 14.9519 29.2936C14.5278 29.4234 14.1154 29.5281 13.7144 29.6103C13.1026 29.6532 12.4815 29.6746 11.8518 29.6746Z" fill="#E7E3E1"/>
<path fill-rule="evenodd" clip-rule="evenodd" d="M11.8518 29.6746C10.3449 29.6746 9.02813 29.5069 7.87745 29.21C7.74194 29.1597 7.60848 29.1069 7.47756 29.0522C5.63951 28.2843 4.25537 27.1172 3.24146 26.2697C3.70738 26.3379 4.18384 26.3732 4.6688 26.3732C4.8691 26.3732 5.06762 26.3673 5.26469 26.3555C6.9211 27.5756 9.26948 28.2769 12.6078 28.286C12.6201 28.2857 12.6323 28.2855 12.6446 28.2852C13.5821 28.8561 14.4324 29.1523 14.9519 29.2936C14.5278 29.4234 14.1154 29.5281 13.7144 29.6103C13.1026 29.6532 12.4815 29.6746 11.8518 29.6746Z" fill="#E7E3E1"/>
<path fill-rule="evenodd" clip-rule="evenodd" d="M4.66865 26.3733C4.18369 26.3733 3.70723 26.338 3.2413 26.2698C3.20629 26.2647 3.17115 26.2594 3.13624 26.2539C3.01801 26.2353 2.90055 26.2146 2.78377 26.1918C2.76417 26.1695 2.74494 26.1475 2.72573 26.1252C2.67558 26.0408 2.55763 25.8427 2.28076 25.3772C2.34973 25.3959 2.419 25.4137 2.48856 25.4308C3.12872 25.5877 3.79504 25.677 4.47999 25.6909C4.72242 25.9267 4.98378 26.1487 5.26454 26.3555C5.06747 26.3673 4.86894 26.3733 4.66865 26.3733Z" fill="#E7E3E1"/>
<path fill-rule="evenodd" clip-rule="evenodd" d="M4.66865 26.3733C4.18369 26.3733 3.70723 26.338 3.2413 26.2698C3.20629 26.2647 3.17115 26.2594 3.13624 26.2539C3.01801 26.2353 2.90055 26.2146 2.78377 26.1918C2.76417 26.1695 2.74494 26.1475 2.72573 26.1252C2.67558 26.0408 2.55763 25.8427 2.28076 25.3772C2.34973 25.3959 2.419 25.4137 2.48856 25.4308C3.12872 25.5877 3.79504 25.677 4.47999 25.6909C4.72242 25.9267 4.98378 26.1487 5.26454 26.3555C5.06747 26.3673 4.86894 26.3733 4.66865 26.3733Z" fill="#3068AF"/>
<path fill-rule="evenodd" clip-rule="evenodd" d="M3.49731 16.4048H3.83525V14.3773H3.49731L3.49731 16.4048Z" fill="#3271C1"/>
<path fill-rule="evenodd" clip-rule="evenodd" d="M4.51099 16.4048H4.84873V14.3773H4.51099V16.4048Z" fill="#3271C1"/>
<path fill-rule="evenodd" clip-rule="evenodd" d="M5.52466 16.4048H5.8625V14.3773H5.52466V16.4048Z" fill="#3271C1"/>
<path fill-rule="evenodd" clip-rule="evenodd" d="M7.88989 16.4048H8.22773V14.3773H7.88989V16.4048Z" fill="#3271C1"/>
<path fill-rule="evenodd" clip-rule="evenodd" d="M8.90356 16.4048H9.2415V14.3773H8.90356V16.4048Z" fill="#3271C1"/>
<path fill-rule="evenodd" clip-rule="evenodd" d="M9.91724 16.4048H10.2551V14.3773H9.91724V16.4048Z" fill="#3271C1"/>
<path fill-rule="evenodd" clip-rule="evenodd" d="M12.2825 16.4048H12.6203V14.3773H12.2825V16.4048Z" fill="#3271C1"/>
<path fill-rule="evenodd" clip-rule="evenodd" d="M13.2961 16.4048H13.6341V14.3773H13.2961V16.4048Z" fill="#3271C1"/>
<path fill-rule="evenodd" clip-rule="evenodd" d="M14.3098 16.4048H14.6478V14.3773H14.3098V16.4048Z" fill="#3271C1"/>
<path fill-rule="evenodd" clip-rule="evenodd" d="M16.675 16.4048H17.0131V14.3773H16.675V16.4048Z" fill="#3271C1"/>
<path fill-rule="evenodd" clip-rule="evenodd" d="M17.689 16.4048H18.0267V14.3773H17.689V16.4048Z" fill="#3271C1"/>
<path fill-rule="evenodd" clip-rule="evenodd" d="M18.7026 16.4048H19.0407V14.3773H18.7026V16.4048Z" fill="#3271C1"/>
<path fill-rule="evenodd" clip-rule="evenodd" d="M21.0679 16.4048H21.4059V14.3773H21.0679V16.4048Z" fill="#3271C1"/>
<path fill-rule="evenodd" clip-rule="evenodd" d="M22.0815 16.4048H22.4194V14.3773H22.0815V16.4048Z" fill="#3271C1"/>
<path fill-rule="evenodd" clip-rule="evenodd" d="M23.0952 16.4048H23.4331V14.3773H23.0952V16.4048Z" fill="#3271C1"/>
<path fill-rule="evenodd" clip-rule="evenodd" d="M8.90356 12.3501H9.2415V10.3228H8.90356V12.3501Z" fill="#3271C1"/>
<path fill-rule="evenodd" clip-rule="evenodd" d="M9.91724 12.3501H10.2551V10.3228H9.91724V12.3501Z" fill="#3271C1"/>
<path fill-rule="evenodd" clip-rule="evenodd" d="M12.2825 12.3501H12.6203V10.3228H12.2825V12.3501Z" fill="#3271C1"/>
<path fill-rule="evenodd" clip-rule="evenodd" d="M13.2961 12.3501H13.6341V10.3228H13.2961V12.3501Z" fill="#3271C1"/>
<path fill-rule="evenodd" clip-rule="evenodd" d="M14.3098 12.3501H14.6478V10.3228H14.3098V12.3501Z" fill="#3271C1"/>
<path fill-rule="evenodd" clip-rule="evenodd" d="M16.675 12.3501H17.0131V10.3228H16.675V12.3501Z" fill="#3271C1"/>
<path fill-rule="evenodd" clip-rule="evenodd" d="M17.689 12.3501H18.0267V10.3228H17.689V12.3501Z" fill="#3271C1"/>
<path fill-rule="evenodd" clip-rule="evenodd" d="M18.7026 12.3501H19.0407V10.3228H18.7026V12.3501Z" fill="#3271C1"/>
<path fill-rule="evenodd" clip-rule="evenodd" d="M17.689 8.29541H18.0267V6.26799H17.689V8.29541Z" fill="#3271C1"/>
<path fill-rule="evenodd" clip-rule="evenodd" d="M16.675 8.29541H17.0131V6.26799H16.675V8.29541Z" fill="#3271C1"/>
<path fill-rule="evenodd" clip-rule="evenodd" d="M18.7026 8.29541H19.0407V6.26799H18.7026V8.29541Z" fill="#3271C1"/>
<path fill-rule="evenodd" clip-rule="evenodd" d="M7.88989 12.3501H8.22773V10.3228H7.88989V12.3501Z" fill="#3271C1"/>
<path d="M35.0944 15.2338C35.0527 15.3191 35.0173 15.3909 34.9898 15.4449C34.975 15.474 34.9631 15.4975 34.9303 15.5558C34.4286 16.525 33.6919 17.1315 32.7576 17.4601C32.0181 17.7201 31.3475 17.7782 30.3428 17.7575C30.3328 17.7572 30.2698 17.7558 30.1672 17.7539L29.9344 17.7502L29.848 17.9673C26.892 25.3801 20.4368 29.3194 11.9152 29.3194C7.04366 29.3194 3.86478 27.4747 2.1111 24.327C1.43435 23.1124 1.00402 21.7495 0.802373 20.3545C0.662378 19.3868 0.643453 18.4479 0.720621 17.7539H2.14554V17.7564L24.7847 17.7564V17.7499C26.1231 17.7348 27.3745 17.3207 28.0027 16.8327L28.2796 16.6176L28.0566 16.3464C27.638 15.838 27.3683 15.093 27.2876 14.3169C27.1917 13.1325 27.4787 11.8782 28.0781 10.9685L28.2279 10.7421L28.4435 10.8868C29.7551 11.9116 30.4287 13.0499 30.5001 14.3708L30.5226 14.7891L30.9247 14.6809C32.2406 14.3265 34.1669 14.4996 34.8739 14.9753L35.1349 15.1508C35.1231 15.1755 35.1112 15.2 35.0944 15.2338ZM2.82142 13.7017H6.53833V17.0736H2.82142V13.7017ZM7.21399 13.7017H10.9309V17.0736H7.21399V13.7017ZM7.21399 9.64684H10.9309V13.0259H7.21399L7.21399 9.64684ZM11.6068 13.7017L15.3237 13.7017V17.0736H11.6068V13.7017ZM11.6068 9.64684L15.3237 9.64684V13.0259L11.6068 13.0259V9.64684ZM15.9994 13.7017H19.7162L19.7162 17.0736H15.9994V13.7017ZM15.9994 9.64684H19.7162V13.0259H15.9994V9.64684ZM15.9994 5.59217H19.7162V8.97105H15.9994L15.9994 5.59217ZM20.392 13.7017H24.1089L24.1089 17.0736L20.392 17.0736L20.392 13.7017ZM35.2493 14.4096C34.4376 13.8632 32.5867 13.6574 31.137 13.9352C30.9499 12.5684 30.1832 11.3821 28.8386 10.3341L28.0404 9.79853L27.5152 10.592C26.8281 11.6349 26.5064 13.0413 26.6148 14.38C26.6947 15.1476 26.932 15.8881 27.3126 16.4746C26.7374 16.7951 25.7937 17.0575 24.7847 17.0709L24.7847 13.0259H20.392V4.91634H15.3237L15.3237 8.97105L6.53833 8.97105L6.53833 13.0259H2.14554L2.14554 17.0736H0.141133L0.0934283 17.3569C-0.0380783 18.1384 -0.036127 19.2782 0.133622 20.4525C0.346588 21.926 0.801983 23.3682 1.52166 24.6598C3.39593 28.0239 6.80093 30 11.9152 30C20.6173 30 27.2834 25.982 30.387 18.4387C31.4352 18.4576 32.1599 18.3907 32.9806 18.1024C34.0675 17.7202 34.9391 17.0044 35.5235 15.8821C35.5562 15.8279 35.6039 15.7319 35.7058 15.5241C35.7425 15.4489 35.7815 15.3684 35.8207 15.288C35.8339 15.2598 35.8467 15.2337 35.8724 15.1805L36 14.9139L35.2493 14.4096Z" fill="#3271C1"/>
</g>
<defs>
<clipPath id="clip0">
<path d="M0 0H36V36H0V0Z" fill="white"/>
</clipPath>
</defs>
</svg>
