<svg t="1741762066554" class="icon" viewBox="0 0 1024 1024" version="1.1" xmlns="http://www.w3.org/2000/svg"
    p-id="147247" width="200" height="200">
    <path
        d="M832 640c-22.208 0-42.816 6.208-61.024 16.192l-138.656-102.048c4.64-13.248 7.68-27.296 7.68-42.144 0-4.48-0.864-8.704-1.312-13.088l128.064-76.864A95.456 95.456 0 0 0 832 448a96 96 0 1 0-96-96c0 4.48 0.736 8.768 1.312 13.088l-121.344 72.8A127.776 127.776 0 0 0 544 388.544V315.456c55.04-14.304 96-64 96-123.456 0-70.592-57.408-128-128-128s-128 57.408-128 128c0 59.456 40.96 109.152 96 123.456v73.088a127.936 127.936 0 0 0-75.648 54.784l-118.56-71.136A96 96 0 1 0 192 448a95.04 95.04 0 0 0 59.872-21.504l132.704 79.648c-0.064 1.984-0.576 3.84-0.576 5.856 0 14.88 3.04 28.928 7.712 42.208l-137.12 102.848A126.144 126.144 0 0 0 192 640c-70.592 0-128 57.408-128 128s57.408 128 128 128 128-57.408 128-128c0-24.192-7.136-46.56-18.816-65.888l126.304-94.72a127.36 127.36 0 0 0 52.512 28.064v138.432A95.68 95.68 0 0 0 416 864a96 96 0 1 0 192 0 95.68 95.68 0 0 0-64-90.112v-138.432a127.104 127.104 0 0 0 52.576-28.096l126.976 93.44A126.624 126.624 0 0 0 704 768c0 70.592 57.408 128 128 128s128-57.408 128-128-57.408-128-128-128zM448 192c0-35.296 28.704-64 64-64s64 28.704 64 64-28.704 64-64 64-64-28.704-64-64zM192 832c-35.296 0-64-28.704-64-64s28.704-64 64-64 64 28.704 64 64-28.704 64-64 64z m320-256c-35.296 0-64-28.704-64-64s28.704-64 64-64 64 28.704 64 64-28.704 64-64 64z m320 256c-35.296 0-64-28.704-64-64s28.704-64 64-64 64 28.704 64 64-28.704 64-64 64z"
        p-id="147248" fill="#ffffff"></path>
</svg>