<svg id="Layer_1" data-name="Layer 1" xmlns="http://www.w3.org/2000/svg" viewBox="0 0 360 447"><defs><style>.cls-1{fill:#2a2f34;}.cls-2{fill:#7b55b7;}.cls-3{fill:#a475db;}.cls-4{fill:#573989;}.cls-5{fill:#fff;}</style></defs><title>kraken-stacked-color</title><path class="cls-1" d="M11.97079,359.84863H24.36337v35.46485l33.55127-35.46485H73.12851L43.80917,390.1748,74.43808,430.376H59.42587L35.34579,398.63867,24.36337,409.92285V430.376H11.97079Z"/><path class="cls-1" d="M83.60507,377.17773H95.79648V389.168c3.3247-7.96,9.4707-13.40039,18.84082-12.99707v12.89648h-.70508c-10.68018,0-18.13574,6.95117-18.13574,21.05664v20.252H83.60507Z"/><path class="cls-1" d="M155.24081,430.376v-6.54883c-3.627,4.332-9.16845,7.65723-17.229,7.65723-10.0752,0-18.94141-5.74317-18.94141-16.42286v-.20117c0-11.78906,9.16846-17.43066,21.561-17.43066a44.76321,44.76321,0,0,1,14.71045,2.21679v-1.00781c0-7.35547-4.63477-11.38574-13.09815-11.38574a37.04243,37.04243,0,0,0-15.21386,3.32519l-3.32471-9.77343a45.62271,45.62271,0,0,1,20.25146-4.43262c15.71729,0,23.37452,8.26172,23.37452,22.46777V430.376Zm.30225-22.2666a34.82335,34.82335,0,0,0-12.19092-2.11622c-7.65771,0-12.1914,3.124-12.1914,8.2627v.20117c0,5.03711,4.53369,7.8584,10.27685,7.8584,8.06055,0,14.10547-4.5332,14.10547-11.18359Z"/><path class="cls-1" d="M181.839,356.82617h12.19043v43.92774l22.06543-23.57618h14.81054l-21.1582,21.66211L231.61044,430.376H217.505L201.48544,407.4043l-7.45605,7.75781V430.376H181.839Z"/><path class="cls-1" d="M235.03525,403.97852v-.20118c0-15.21386,10.78027-27.708,25.99414-27.708,16.92676,0,25.49121,13.2998,25.49121,28.61425,0,1.1084-.10059,2.2168-.20117,3.42579H247.22665c1.30957,8.665,7.45606,13.501,15.31446,13.501,5.94433,0,10.17578-2.2168,14.4082-6.34765l7.15332,6.34765c-5.03809,6.04492-11.99023,9.97461-21.7627,9.97461C246.92392,431.585,235.03525,420.40137,235.03525,403.97852Zm39.39453-3.92969c-.80567-7.8584-5.44043-14.00488-13.501-14.00488-7.45508,0-12.69433,5.74316-13.80273,14.00488Z"/><path class="cls-1" d="M298.81064,377.17773H311.002v8.26172c3.42578-5.03711,8.36231-9.37011,16.624-9.37011,11.99023,0,18.94238,8.06054,18.94238,20.45312V430.376H334.377V400.14941c0-8.26171-4.13086-12.99707-11.38574-12.99707-7.05273,0-11.98926,4.9375-11.98926,13.19922V430.376h-12.1914Z"/><g id="wuzW6A"><path class="cls-2" d="M75.32378,215.37142c1.826-6.33318.7609-12.18962,1.73644-18.22716,12.34945,19.79643,10.318,40.85511,5.05452,62.01366-2.03456,8.17863-4.95616,16.18367-9.79362,23.28058-10.31086.90808-20.63477,2.21188-30.98729,1.28143-12.35955-1.11079-23.87785-4.13575-30.29918-16.39,0-2.49343-.74294-5.1001,0-7.48029,3.47326-11.12754,15.6962-9.57088,25.69371-6.79924,11.65283,3.23056,20.20912-2.91706,26.51525-11.01968C70.12559,233.18817,72.45048,225.33683,75.32378,215.37142Z"/><path class="cls-2" d="M281.61361,197.14251c.96437,6.04956,1.24693,10.85749,1.757,18.258.48966,10.46465,2.972,20.028,12.03636,26.6148,3.45352,7.9847,17.05441,14.48124,26.5333,11.18814,9.82238-3.41243,22.21013-4.45506,25.70743,6.64617a14.18048,14.18048,0,0,1,0,7.48029c-2.34278,9.62392-12.25323,13.03141-21.56455,15.08014-13.27072,2.91986-26.50324,1.15615-39.749-.09956-14.25389-26.36939-19.272-53.50556-6.7579-82.07036A21.467,21.467,0,0,1,281.61361,197.14251Z"/><path class="cls-3" d="M321.08486,306.4863c-6.4458,1.62272-11.81619-.04261-16.90916-3.47894-7.79715-5.26081-13.532-12.38563-17.84154-20.69687-14.25388-26.3694-19.27207-53.50558-6.75791-82.07038a21.46752,21.46752,0,0,1,2.03738-3.09762c7.31529-18.52844,13.81755-37.24423,17.1326-57.03454,10.83794-64.70069-23.38292-113.16069-87.94149-124.27133-4.263-.73366-8.1332-2.13417-12.76284-2.83662-13.18136-2-25.19293-2.52631-37.40143,0-7.0838,1.46585-13.93495,2.69956-20.81709,4.51331-41.43426,10.92008-71.44076,33.823-80.18547,77.99442-5.384,27.1955.58409,53.49493,9.00576,79.29217,2.46758,7.55863,5.59274,14.9026,8.41652,22.34492,12.34946,19.79585,10.31808,40.85456,5.05455,62.01311-2.03457,8.17862-4.95614,16.18366-9.79369,23.28051-4.306,7.6704-9.52319,14.6175-16.76446,19.74072-5.16212,3.65218-10.73867,6.53571-17.37952,4.31206-11.86229-3.97207-23.86521-1.73633-27.14243,10.2086a23.79137,23.79137,0,0,0,0,11.96848c5.17435,20.32679,27.27458,19.1216,44.75924,17.19087,31.68175-3.49841,58.83655-17.507,82.81168-38.09868.75561-.649,1.47682-1.338,2.2173-2.0047,25.46136-22.92353,50.06678-23.4693,75.79692-.90141,18.81086,16.499,39.59282,29.22965,63.59234,36.47535,12.22089,3.68964,24.66823,5.98221,37.52814,4.93891,12.80312-1.03876,26.72139-4.22469,29.90747-17.60034a22.35407,22.35407,0,0,0,0-10.47242C344.13434,304.19353,335.43486,302.87388,321.08486,306.4863Z"/><path class="cls-4" d="M295.407,242.0153c-9.0644-6.58678-11.5467-16.15015-12.03636-26.6148,4.14683-.198,8.29733-.60759,12.44035-.54218,5.56184.08777,9.89969,2.29574,11.89269,7.95107,2.031,5.76312-.5509,10.14546-4.28075,14.03842A18.328,18.328,0,0,1,295.407,242.0153Z"/><path class="cls-4" d="M75.32378,215.37142C74.50189,225.71017,72.29,235.419,63.24361,242.03069a37.03347,37.03347,0,0,1-5.17853-2.73891c-5.43259-4.038-9.61654-8.96279-7.16348-16.26151,2.45738-7.31157,8.28684-9.0832,15.43262-8.13052C69.299,215.295,72.3254,215.22813,75.32378,215.37142Z"/></g><path class="cls-1" d="M252.41948,143.62116c.0963,11.95111-8.04094,20.211-19.93015,20.23069a19.98355,19.98355,0,0,1-19.91872-19.80163c-.029-10.323,9.78718-20.23171,19.96391-20.152A19.89791,19.89791,0,0,1,252.41948,143.62116Zm-19.59436,1.92264c-.45053-3.937-2.663-6.34816-6.71624-6.25683-4.1219.093-6.229,2.646-6.08871,6.74353a5.793,5.793,0,0,0,6.10138,6.01553C229.93607,152.06138,232.50987,149.78842,232.82512,145.5438Z"/><path class="cls-5" d="M232.82512,145.5438c-.31525,4.24462-2.889,6.51758-6.70357,6.50223a5.793,5.793,0,0,1-6.10138-6.01553c-.14031-4.09752,1.96681-6.65058,6.08871-6.74353C230.16207,139.19564,232.37459,141.60682,232.82512,145.5438Z"/><path class="cls-1" d="M146.41948,142.62116c.0963,11.95111-8.04094,20.211-19.93015,20.23069a19.98355,19.98355,0,0,1-19.91872-19.80163c-.029-10.323,9.78718-20.23171,19.96391-20.152A19.89791,19.89791,0,0,1,146.41948,142.62116Zm-19.59436,1.92264c-.45053-3.937-2.663-6.34816-6.71624-6.25683-4.1219.093-6.229,2.646-6.08871,6.74353a5.793,5.793,0,0,0,6.10138,6.01553C123.93607,151.06138,126.50987,148.78842,126.82512,144.5438Z"/><path class="cls-5" d="M126.82512,144.5438c-.31525,4.24462-2.889,6.51758-6.70357,6.50223a5.793,5.793,0,0,1-6.10138-6.01553c-.14031-4.09752,1.96681-6.65058,6.08871-6.74353C124.16207,138.19564,126.37459,140.60682,126.82512,144.5438Z"/><path class="cls-1" d="M203.63155,186.11769c-.11126,10.25-9.92955,18.86023-23.10942,20.26485a23.03576,23.03576,0,0,1-25.04919-18.54769c-.54343-2.70052-1.64455-5.45492,2.13248-6.44356,3.1745-.83089,5.18068.78056,5.79214,3.89143,1.65417,8.4156,6.77816,12.1302,15.25836,12.04391,8.90861-.0907,14.61022-4.068,16.87331-12.75214.63667-2.44294,1.4883-4.91555,4.54593-4.55957C203.62187,180.42786,203.7008,183.3411,203.63155,186.11769Z"/></svg>