<svg xmlns="http://www.w3.org/2000/svg" xmlns:xlink="http://www.w3.org/1999/xlink" viewBox="0 0 85.9 13.1" enable-background="new 0 0 85.9 13.1"><g fill="#fff"><path d="M4.1 10.9c-.7 0-1.4-.3-1.8-.9v.2c0 .3-.3.6-.6.6s-.7-.3-.7-.6v-6.9c0-.3.3-.6.7-.6.3 0 .6.3.6.6v2.4c.5-.6 1.1-.9 1.8-.9 1.5 0 2.6 1.2 2.6 3 0 1.9-1.1 3.1-2.6 3.1zm-.4-5c-.6 0-1.2.3-1.5.8v2.3c.3.4.9.8 1.5.8 1 0 1.6-.8 1.6-1.9.1-1.2-.6-2-1.6-2zM12.9 5.7l-2.5 6c-.4.9-1.1 1.3-1.9 1.3-.4 0-.9-.2-.9-.6 0-.3.3-.6.6-.6h.2c.3 0 .5-.2.7-.5l.3-.6-2-5v-.2c0-.3.3-.6.6-.6s.5.2.6.4l1.5 4 1.5-4c.1-.3.3-.4.6-.4.4 0 .6.3.6.6.2.1.2.1.1.2z"/></g><defs><path id="a" d="M15.5 0h70.4v10.7h-70.4z"/></defs><clipPath id="b"><use xlink:href="#a" overflow="visible"/></clipPath><g clip-path="url(#b)"><defs><path id="c" d="M-276.5-246.2h650.9v503h-650.9z"/></defs><clipPath id="d"><use xlink:href="#c" overflow="visible"/></clipPath><path clip-path="url(#d)" fill="#fff" d="M45.7 9.9l-3.1-8.6-.1-.4c0-.4.3-.7.8-.7.4 0 .6.3.8.6l2.6 7.4 2.6-7.4c.1-.4.4-.6.7-.6.4 0 .7.3.8.6l2.6 7.4 2.6-7.4c.1-.3.3-.6.7-.6.4 0 .7.3.7.7l-.1.4-3.1 8.6c-.2.4-.5.7-.8.7h-.1c-.4 0-.7-.2-.8-.7l-2.5-7.3-2.6 7.3c-.1.4-.4.7-.8.7s-.7-.2-.9-.7M68.2 1c0-.4.3-.8.7-.8.4 0 .8.3.8.8v1.7c.7-1.7 2.4-2.5 3.5-2.5.5 0 .8.4.8.8s-.3.7-.7.8c-2 .2-3.6 1.7-3.6 4.6v3.4c0 .4-.3.8-.7.8-.4 0-.8-.3-.8-.8v-8.8"/><path clip-path="url(#d)" fill="#fff" d="M78.8 10.7c-2.7 0-5-2.1-5-5.2 0-2.9 2-5.2 4.8-5.2 2.9 0 4.6 2.4 4.6 5.1 0 .4-.3.7-.7.7h-7.2c.2 2.2 1.7 3.4 3.5 3.4 1.2 0 2.1-.5 2.9-1.2.1-.1.3-.2.4-.2.4 0 .7.3.7.6 0 .2-.1.4-.2.5-.9.9-2.1 1.5-3.8 1.5m3-5.8c-.2-1.8-1.2-3.4-3.2-3.4-1.7 0-3 1.5-3.2 3.4h6.4zM57.5 7.6c0-2.2 1.8-3.3 4.3-3.3 1.3 0 2.2.2 3.1.4v-.4c0-1.8-1.1-2.8-3-2.8-1 0-1.6.1-2.4.5l-.3.1c-.4 0-.7-.3-.7-.6s.1-.5.4-.6c1-.4 1.8-.6 3-.6 1.4 0 2.5.4 3.3 1.1.7.7 1 1.7 1 3v5.6c0 .4-.3.7-.7.7-.4 0-.7-.3-.7-.7v-1c-.7.9-1.9 1.7-3.7 1.7-1.7 0-3.6-1.1-3.6-3.1m7.4-.8v-1c-.7-.2-1.7-.4-3-.4-1.9 0-3 .8-3 2.1s1.2 2 2.6 2c1.9 0 3.4-1.1 3.4-2.7M18.3.9c-.3-.7-1.2-1.1-1.9-.7-.8.3-1 1.2-.7 1.9l3.2 7c.5 1.1 1 1.7 2 1.7 1.1 0 1.5-.6 2-1.7 0 0 2.8-6.1 2.8-6.2 0-.1.1-.3.4-.3.2 0 .4.2.4.5v6c0 .9.5 1.7 1.5 1.7s1.5-.8 1.5-1.7v-4.9c0-.9.7-1.6 1.6-1.6s1.5.6 1.5 1.6v4.8c0 .9.5 1.7 1.5 1.7s1.5-.8 1.5-1.7v-4.8c0-.9.7-1.6 1.6-1.6.9 0 1.5.6 1.5 1.6v4.8c0 .9.5 1.7 1.5 1.7s1.5-.8 1.5-1.7v-5.5c0-2-1.6-3.5-3.6-3.5s-3.2 1.4-3.2 1.4c-.5-.9-1.4-1.4-2.9-1.4-1.6 0-3 1.4-3 1.4-.7-.9-1.8-1.4-2.8-1.4-1.4 0-2.6.6-3.3 2.2l-2.1 4.8-2.5-6.1M83.4 1.5c0-.7.6-1.3 1.3-1.3.7 0 1.3.6 1.3 1.3 0 .7-.6 1.3-1.3 1.3-.8-.1-1.3-.7-1.3-1.3m2.3 0c0-.6-.4-1-1-1s-1 .5-1 1c0 .6.4 1 1 1 .5 0 1-.5 1-1"/><path clip-path="url(#d)" fill="#fff" d="M84.2 1c0-.1.1-.1.1-.1h.4c.2 0 .3 0 .4.1.1.1.1.2.1.3 0 .2-.1.3-.2.4l.2.2v.1h-.30000000000000004l-.3-.3h-.2v.3h-.1c-.1 0-.1-.1-.1-.1v-.9zm.5.4c.1 0 .2-.1.2-.2s-.1-.2-.2-.2h-.3v.3h.3z"/></g></svg>