<svg xmlns="http://www.w3.org/2000/svg" xmlns:xlink="http://www.w3.org/1999/xlink" viewBox="0 0 37 36.333"><defs><clipPath id="a" transform="translate(-596 -355.833)"><path d="M601,374.334a13.5,13.5,0,0,0,9.232,12.809c.675.124.922-.293.922-.651,0-.32-.012-1.169-.018-2.295-3.755.815-4.547-1.81-4.547-1.81a3.574,3.574,0,0,0-1.5-1.975c-1.226-.837.093-.821.093-.821a2.836,2.836,0,0,1,2.068,1.392,2.875,2.875,0,0,0,3.929,1.121,2.883,2.883,0,0,1,.857-1.8c-3-.341-6.149-1.5-6.149-6.672a5.218,5.218,0,0,1,1.39-3.623,4.851,4.851,0,0,1,.133-3.573s1.133-.363,3.712,1.384a12.784,12.784,0,0,1,6.759,0c2.577-1.747,3.709-1.384,3.709-1.384a4.852,4.852,0,0,1,.135,3.573,5.209,5.209,0,0,1,1.387,3.623c0,5.186-3.157,6.327-6.164,6.661a3.225,3.225,0,0,1,.916,2.5c0,1.8-.017,3.261-.017,3.7,0,.362.244.782.928.65A13.5,13.5,0,1,0,601,374.334Z" style="fill:none;clip-rule:evenodd"/></clipPath><clipPath id="b" transform="translate(-596 -355.833)"><rect width="1366" height="2816" style="fill:none"/></clipPath></defs><title>github_icon</title><g style="clip-path:url(#a)"><g style="clip-path:url(#b)"><rect width="37" height="36.333" style="fill:#fff"/></g></g></svg>
