<svg xmlns="http://www.w3.org/2000/svg" xmlns:xlink="http://www.w3.org/1999/xlink" viewBox="0 0 85.67 13.05"><defs><style>.cls-1{fill:none;}.cls-2{clip-path:url(#clip-path);}.cls-3{clip-path:url(#clip-path-2);}.cls-4{fill:#fff;}</style><clipPath id="clip-path" transform="translate(0 0)"><rect class="cls-1" width="85.67" height="13.05"/></clipPath><clipPath id="clip-path-2" transform="translate(0 0)"><rect class="cls-1" x="-355.3" y="-299.57" width="792" height="612"/></clipPath></defs><title>Asset 1</title><g id="Layer_2" data-name="Layer 2"><g id="Layer_1-2" data-name="Layer 1"><g class="cls-2"><g class="cls-3"><path class="cls-4" d="M36.8,12.09,33.05,1.65a1.69,1.69,0,0,1-.12-.5.91.91,0,0,1,.93-.88A1,1,0,0,1,34.8,1l3.11,9L41,1a.94.94,0,0,1,.91-.74H42A1,1,0,0,1,43,1l3.11,9,3.16-9a.9.9,0,0,1,.88-.72.88.88,0,0,1,.91.86,1.76,1.76,0,0,1-.12.5L47.15,12.09a1.09,1.09,0,0,1-1,.83h-.07a1,1,0,0,1-1-.83L42,3.22l-3.11,8.87a1,1,0,0,1-1,.83h-.05a1.09,1.09,0,0,1-1-.83" transform="translate(0 0)"/><path class="cls-4" d="M64.15,1.17a.93.93,0,0,1,.91-.93.92.92,0,0,1,.93.93V3.29a5,5,0,0,1,4.26-3,.89.89,0,0,1,.91.93.92.92,0,0,1-.82.93C68,2.42,66,4.21,66,7.78V12a.92.92,0,1,1-1.84,0V1.17" transform="translate(0 0)"/><path class="cls-4" d="M77.08,13A6.06,6.06,0,0,1,71,6.65v0C71,3.08,73.49.23,76.84.23c3.59,0,5.63,3,5.63,6.21a.85.85,0,0,1-.85.86H72.86a4.25,4.25,0,0,0,4.27,4.14A4.93,4.93,0,0,0,80.62,10a.78.78,0,0,1,1.31.57.78.78,0,0,1-.28.59A6.13,6.13,0,0,1,77.08,13m3.59-7.09c-.19-2.23-1.46-4.17-3.87-4.17-2.11,0-3.71,1.77-3.94,4.17Z" transform="translate(0 0)"/><path class="cls-4" d="M51.08,9.19v0c0-2.6,2.15-4,5.27-4a13.11,13.11,0,0,1,3.8.53V5.25c0-2.22-1.37-3.36-3.68-3.36a6.26,6.26,0,0,0-2.87.56.91.91,0,0,1-.33.07.82.82,0,0,1-.81-.79A.76.76,0,0,1,53,1a8.2,8.2,0,0,1,3.71-.7,5.41,5.41,0,0,1,4,1.36,4.87,4.87,0,0,1,1.27,3.6V12a.87.87,0,0,1-.89.91.84.84,0,0,1-.88-.86V10.91A5.41,5.41,0,0,1,55.69,13c-2.29,0-4.61-1.31-4.61-3.84m9.09-1V7a12.87,12.87,0,0,0-3.63-.53c-2.31,0-3.6,1-3.6,2.55v0c0,1.55,1.43,2.46,3.1,2.46,2.27,0,4.13-1.39,4.13-3.34" transform="translate(0 0)"/><path class="cls-4" d="M3.37,1A1.74,1.74,0,0,0,1,.16,1.71,1.71,0,0,0,.18,2.5L4.09,11c.62,1.33,1.27,2,2.48,2s1.87-.76,2.48-2L12.51,3.5A.49.49,0,0,1,13,3.18a.54.54,0,0,1,.54.55V11a1.84,1.84,0,1,0,3.66,0v-6a1.83,1.83,0,0,1,1.94-1.89A1.78,1.78,0,0,1,21,5.06v6a1.83,1.83,0,0,0,1.82,2,1.85,1.85,0,0,0,1.85-2v-6a1.83,1.83,0,0,1,1.94-1.89,1.78,1.78,0,0,1,1.87,1.89v6a1.84,1.84,0,1,0,3.66,0V4.23A4.25,4.25,0,0,0,27.74,0a5.66,5.66,0,0,0-3.91,1.67A4.33,4.33,0,0,0,20.05,0a6.21,6.21,0,0,0-3.7,1.66A4.42,4.42,0,0,0,13.06,0a4.05,4.05,0,0,0-4,2.7L6.58,8.6,3.37,1" transform="translate(0 0)"/><path class="cls-4" d="M82.62,1.78h0a1.53,1.53,0,1,1,3.05,0h0a1.53,1.53,0,1,1-3.05,0m2.76,0h0a1.24,1.24,0,1,0-2.47,0h0a1.24,1.24,0,1,0,2.47,0" transform="translate(0 0)"/><path class="cls-4" d="M83.56,1.16A.16.16,0,0,1,83.73,1h.51a.58.58,0,0,1,.43.15.46.46,0,0,1,.13.34h0a.45.45,0,0,1-.29.45l.23.27a.19.19,0,0,1,.05.12.15.15,0,0,1-.15.15.2.2,0,0,1-.16-.08L84.15,2h-.26v.32a.16.16,0,0,1-.16.16.16.16,0,0,1-.16-.16Zm.66.55c.16,0,.25-.08.25-.21h0c0-.14-.09-.21-.25-.21h-.32v.42Z" transform="translate(0 0)"/></g></g></g></g></svg>